<mxfile host="Electron" agent="Mozilla/5.0 (Windows NT 10.0; Win64; x64) AppleWebKit/537.36 (KHTML, like Gecko) draw.io/24.7.17 Chrome/128.0.6613.36 Electron/32.0.1 Safari/537.36" version="24.7.17">
  <diagram name="Page-1" id="OfGdx1XJvnOUrbY_bmAw">
    <mxGraphModel dx="1050" dy="629" grid="1" gridSize="10" guides="1" tooltips="1" connect="1" arrows="1" fold="1" page="1" pageScale="1" pageWidth="827" pageHeight="1169" math="0" shadow="0">
      <root>
        <mxCell id="0" />
        <mxCell id="1" parent="0" />
        <mxCell id="hMr4JNMgRniru60Oef6T-1" value="" style="rounded=0;whiteSpace=wrap;html=1;" parent="1" vertex="1">
          <mxGeometry x="100" y="100" width="670" height="450" as="geometry" />
        </mxCell>
        <mxCell id="hMr4JNMgRniru60Oef6T-5" value="&lt;font style=&quot;font-size: 14px;&quot;&gt;process&lt;/font&gt;" style="ellipse;whiteSpace=wrap;html=1;rotation=-90;" parent="1" vertex="1">
          <mxGeometry x="62.5" y="217.5" width="370" height="215" as="geometry" />
        </mxCell>
        <mxCell id="hMr4JNMgRniru60Oef6T-7" value="" style="shape=image;verticalLabelPosition=bottom;labelBackgroundColor=default;verticalAlign=top;aspect=fixed;imageAspect=0;image=data:image/png,iVBORw0KGgoAAAANSUhEUgAAAO4AAADrCAYAAABuI6qRAAAgAElEQVR4XuxdCTyVzfd/7rXv+1ZkayFJJVS0F0V7KXtk30VK+0qptBeVFoQosoRCFNmyq0QSIlSy79x7/2e89fu1PM99+71L29/t9enNPc/MmTNzZuaZ853vIWHDn2ELDFvgl7MA6ZfTeFjhYQv8hBag0WiMJBJp8HupRoIKaRQKJYaRkXH596r0Z6kHmv6fiQuMTsPT66MM0fc/S1v+qh6/e/v+ql3Qcx9ss3JwcDCCTCZfZWBgMPuyPJCZCr9bBz70DHzo8t+p7395ltTV1UWDQYmxsbHlw99IiX/1Aw1lhwr6iWYn+J4JvkcyHSBDJXAmFvg9fE3qpacslEVG3xOV86FzOOFvCsj00HFcbviui47OqB4WojI+lotmZfh/VpDr/FeN/I2Ff7DPx7YNED0GckhnQlvD96g/0IrTRacMBvie8o2q0RWD+nj+pD/QhMz1YQzhTsjfqgdqO8iOgJ9K+NkDbdj76bMfvv84pv/1fv3QZxykM2fO0IqLi7ELFy7sBKUO4DXI3t5+7dmzZ8P/rLEg5ycpKfl48+bNZ/FkW1paeJctW3Z7586duzU1Ne/hyaSmpi7y8PA4lJ2dvRj0acCTOXHihNuzZ8/Gnj9/3pqeTj4+vpYvXpSP9/U9sZFIzsbS9YLSlInPbG1Nj+PJ1LTW8OktWxfrucdr97x583B1zs5+OHfjRtfdcXF3lvPz87cR1ZWWljbfw2PT/oyMnCXQtmY8ubMnztqVPCsbf/78aQeichwdnS7KSsuXurja4uqMJsdp0zRunzzps23atGnZdJyJe+bMWXFbt+7ep6OzIAlPLjMnRcvFafOhnOxcTdD5HZ7MsRPH9pZXV008f+L0SqK61lusvzx1smqxo739SXp9Zu9gcUpeTuGZg8NGXzw5WGjE5i2Y/+D4CT/XGWqTbuPJ3L+fMN3DY8+l5OR7czk5Od/gyfie992YW1Qkd9mX/hhCz1pZWamBf+SgFRhv52VtbW0CYzGQ3qSlqqpadOTIEdc5c+bg2vnu3buz9u/f75menq4FdXQTlZWSkjJ/9+7dp0jl5eUr3r17N1FDQ2MfnjAoy5CRkaEF38f/mePm5ORMHzFixDsJCYkXRGUlJCRoz549O4+DgwPXKd+/fy8OTqumra0dRzTLV1RUKIAcHwzKh/R0evz4tURr60v+mTNnFhPJ5dwvmc4uwPtWUXEUmlFxP7fibq1eMGtBOhcX11s8gY6ODqH09PvTFi9ecpvelrqzs1Pk/v37ajo6OvFEq3dNSY1MY3s7v5qGYh6RPveTcxfyCAi+mzxZuohIBuysNXXq1EwhIaEOejZKgslm2iz1LKK2gc6iKQ9S1JdqL40m0hkmUeXqlgbBxTPm3SWqKyk7W2Ok0Mg342UlKujpk5JyW1lMbOR7efnJ1QRjiC02Pn6FwvTpGbL8/K9wZZppo+Kz7qhray9COuM6QUlJicz73l7uueBQfzau/4nv4+LiVsO4z4CJpBGvvLq6OoEnT56oLFq06A69+tDuJiYmRmf4cOqf6JXvWAZ0HHfcjTzdTh6+rhlTZNNGCZHqv2P1f7kqtAD8U1vlP1PiwysJ2r730HtN+rNyfubvhx33Z+6dL3SjvaNxRUXl6B89d203q/xoThsnC13daZyJP3MTwIkE8u+/lKcI8FJGSfO/EOPC327/E21A75uvX2KjGltahEmcWPuUcXyl3/Ok959ow7eWMey432qpHyyHBuXjpFY1G1uf8NKGZuEJa6a/srXXszJUYyLcnv5glbHWGhpfbmrxwq1ehwNmrVt5f7X+Mnf18SxP/i29KvMaFY/73fQoq65bbuZgtN9gucLJPzvA/Ld0+bfLHXbcf9vC/0D56LAp5caL1Qf3+XsXPukRew9laqxfUGXutNjOTJmJ7jvRP1D9Xy6ioeD9eK/9V/bfSspZpW29PsZig842VQXS079c4J88GHgyyt7/avqmHhZOKftNpnbrV0tdGXbcf8vaw+XStUD5kzaVpLuFxvFRD41ycl7yMVBGYe9p/ZiKnnKFo7OWo6Ea50+74lZnVk8+sCvyZGJW+cwltmaRa8zUds37Fx33xL6wbaHhxU40TiEhi80mNgtX8gdJ/0nI8FcdfsMr7k/ac+jdMCk+QzchrnJlxqPn0183vOWSGiGHNVcPYE09PZjiKtVKC2dNB4OfeMWtympS27f9emxUSomQsYdrrJ7xuN0zFEiF/4bJUajm/L573n7Xs51prHwMLvvtNprqYP5/Flv/N3T5HmUOOW5DQ4OQmJgYbowOff/06VMFAGh0ysjI1NBTCslJS0u3sbOz1xHJZWZmqk6fPr0MDNqOJ9Pa2spXW1srP2HChGyiE8E3b97ItrW1cY0dO5buUX5ra7X069ddvOPHjy9pauoWaWsbEHv5spOXk1OQrbubBaNS4T9qA3XMGLGXsrKk51/qMxTsbsW4s4qqp4mIjWziE2Z6S+7AGJ/VvxvX2cPEzMhD7ZMW469pY+qjtlS/HDV7qnwKvZNTCBsJl5fXKCgrK2SCXB9e++sqK8e21L2T4mLgHbB287xeWMMkzMAnhKmpyebPnaySVptRYxiblCEsOk+1znLTGiuj6aQEHL1ZyvPzZ4jIChTy8Um3ohNdiKGPfF7bNqK3h5mL1sPG0k9ip7CwMvT2d9eTx88dVSROIqEd+FefocOlBxkTlWer5zc39/A0VnWP6KSw8r5v7WdmAGkBAbZOMrmNTOGgdaiME3uECkAn36+rW2XuXM/VuhmWdyizpBqbs27N09ma6mFj5ZjTFSQZq2RGkHDH0rOSd8qtbRgXjSZIwxgxrq4ujMbI2Efi4GDoEBJirJGSwhrTcwvVJqtMLuWCuDIC7HQ3dQs9yetUvB6asTnm3pN5ZC6e/uWGiyOnqMrcERPtKpeZyF0uSSK1fNq46upqsUEGBo7RBKHLj7IwzvjBP3jk5OSqiMZ0WVnZRBYWlnYY+9UENmQqKipSnzRp0lOiWDi0gxPCqeMgxJlPz8fa29sFS0tL5UiHDx8+Cs60IioqajTRA8bGxomjR48ugMCvB71CDQ0No6SkpB55enp6ETSAe8yYMZnHjx93Xbp0Ke5pKASiF0PA2+fx48ezuLm5m/DK2bt3r9fz58/HBwcHr6Cnz969+4+VFJdr+J0PWhEdnWgXH5+1+OnjurE11c2cJBIAaxjIWM9AE83V3SJk15Zljjw8WNunkwUYkzct9ommheWWsOlztbG5Wjreja8blQ4fO7Kova8fE5UQwHT15t7n42MovHzhtP7TnJzJnJwk3Dgd0vNOUtJya0vrE9VVldOgHlxgwLGDnmcf3ktfsNv9gJe57a6r7WzSmKGl+Xkjk8lewkxY73HHm/Fh0Q+URy5a8Ga9/fINhhqkr+LrKF48RWl8/gXfQMc5mnNulZU1T7x7O9v29p00tcdPqsa2dfZzsLByYVy8nFhdbWX/5cDTzqZrxwThIZ9S45NX2Jo7n468FmuYXVw9PzYuVT81s2jMIAMbRgNc2/gx0j019ZVt8mqyr+7HHpqBJq6CxOL5J84GbL+T8HguiSKBdVDYsW4mAI0xdGHiigKYge7MUG93bYsvY6xgbw4dzS33q191SJNpnD3Pnr8UZ+fgxDq62rEJE8dhBsYrfbW1VS8uWKoe5Xf+mOuahdMimprKRyaF5Jjt2Bu1v6VNAOsa5MAozEzY4CDMQ/wDmM6qaZjZ+kVr1qjLRnw6VgDEc/z+w4eKUTdvLqA3hsA/9j98+FANYqeadPwjAcZ1ya5du7bgyaBYuLy8fM65c+dsYdzj4iFu3bo1393d/WRubq4GHx9fK1FdiYmJ2o6OjqFDKy6Ke9E7NkdoFVhF+4jQPh8rQQMGgBXdIEcY9P9Q1jui+lDnwQwnCEAOwtUdrQJQDhNRMPujPq3VPdJxKdk6KalFFo+yyiY2NfeR3jd3Y0zM7FhXfy/GyMSODVJpGAc/G7ZYW/2ph4eBvrIc9uyjblAPf2Z09XJTi+2XpRSmtZKZObprXlaPKKt8jrELCmNsXBTMbavB+dWr1Pez9GPckmJYOb24IWobzODCvLy8hLM3WpUbm5uFmPuZaZXV9RNGjlKsFhNjesnFhb3v6MAEDloFREYnFs0U15oBjquL67io/a01rTID7Dy9EZcfrI+JyrJ5VPBiFI3MhvVS+7GuPgBtMVMwDm5erAvWIX4BbszCbkmQmfWCXfJipM9WDVoHTehWcMbq8NAUpydP6qTetHSzUZlZsba+bmwQPJeXjQ8boFKw0VPlsb07bTYs12INyU99tsDv/I2tERE56oOD0lg/xoP1MYKXw6IuojwCMzGef/Ww3UyHjxMF2uZWl/VKBvrfOxAZmbrqaVUNbPDYMCogJLu6+zAOHhHYGrFgrOysmKg4W5ON/aojq/UUQsTZSXW05uZR16/EWWzceXtna7cIRsFYMSqAZikD0DDufmzhWg2qlYX2Kt1pI6M/dYZ3EFpjFsSYeAgQbB9lQTdm2AWy03Mm1GcwFnuJdpGorPr6eknY1b4hOixDuzsY06gcwon/g6+yv3r1SvS3fsfNT61adPlG1tGYmIfyFMoAeeWq5fGK8uOzOHm5mmAigleEJu7CknKNlHv3Vfv6O0RmzlZ6sWe/ueY4SewVWjmQ4z68Vbtig8XuS91MIlQmHu7B0TLi7+ctVI8SEBCsYGDpZpCR48iaO4kLbX3/Fib200GFBjL8mw1+mKDc/0AoabBNOuAcdzPkVtZs8YXTG0yd9SzwVtyPZV06nrgz+Fq2RVFZ4yhhUQlMU3teotw4yXQBIZb67oFW5pqX9RIpiU+XlJZWTOARIZOXr9EI8dm3ZMOn2/iKvK4p3nv8AxLvPZ7AyiWITZs1tVBtpkq0gAjf6872No7U2AfaeUXlap0kVp65mpNqLpzS1qDRMMrjrFcTsjJfLYi9/mxdUXm95KQl08qVZynEjh7P9UhZjuexshT2/OMk117ZPvbU+QfugaEPVg2SmflVpikVTJ02NlZEVLiWhYWJ1vymhb2itGli1qOiuU/Lno2erDa2zn2Xub2OOjuCPLI2VTVJZOUMqEbffqJ/LzVvOoWZkVVHb+Fd2fEjU0YrCT1Vk8aKR3CTcHdv9Fbbn/m739Zxe2C1PXc19uDFmKrVr963MVrZzAtbtnjaFUUljkyhDzsC9C5WmPdeNeJ6suGdmLwlzZ29gh4+LlsM9GWvfHh/4s8Mq1hu5ex5ubSVFRs5QaHbzHJ+uI3u+F0j+DGEWOKAHzTT9n+PTqa10wT3WV6OiEoqmSW0YGad5cbVVro477hIl/a8djnHHSdvRj2sVuCTku0ztV16XmOa3M35UxgLQd9O9N7bXI+NSLtXrnny1PVNeeUNcmOmjOvZ6rneTFedPwLtOmitNL6IwDLDzdtPn6rq6CfpW+g/WrZC8aiWulASLy+GJhTWrIgXs66HZbrGJD7R5Bbnw/acNVm7cvbIBFRHeWaT6hGPqNMJmSWqC9wNYtZZq+3Rlvr8cIrWRuNPDE9ds/tM7rGy+nYObUONFG2dyZeWLxBJhj4YgpgiXd+UtYyPiXqkHRKcbfG07u1o/Y2mwYbmKvvUxP97NnF2f+LOy+FZDt3MHMK2Oy2dHZdznyc6S/ge/fVv1vHbOm5BWO7qoxfvet8uHZRdsGZ5zy63SSpKozCEkx34cnV8nNUxJ+hCho9f0M0pCyx03rtsXKE9axzpERq4+ekvFxua7Ax+3i+ALdRdWuS0aa7rkglMqf9mpxCVjRzX09z/RlRy0RxerZm1G5zWWRnMIH0Vx0UHNvFn7puf9YvfnfWOJqpluDzjxDENLVGC2ztH3cO8r0aXWjVRMN5lpvNytzvO0pLkJbWUF7xUCvUtdDlyMcpUeKISts3LxdhChyH00wM4tDu4F1iwNiA8b2M3E0l0jZX6Ph2N8THcsMLV5jaoHt4S4XsrNW/K7M16kYZOWge0R37uuA2Z5aq+Z2J3+IS9WDpFaynNeY/28tUqGHL8r+629rykSV4JzHfaefSK6+h5GgPW9rqWG7QYAz7aK+DojW2nLmZv7OcWErTes8HZXlvI73tNqt97PPy2jhu6J87LPyDN7j2/NLO+lfm5tfqM/oIkrBm2cVR4X0Tb2j+2tm0YrbIeGxlxrWL7nmNn9DjkhDDvE5tXmc9huTW0IkfVLFxr4HGzljwKs9psEXpq15ivDlW+V6ehd3vPdX7ht+4Vz+NeOKvWxEnfygzPcVtovLusz/rGJT9fwjJhKttau7WbN+qxHiPSM+9O3pRTfo/3x2Q80RabLIn5X3WUUodTX3TIdNX34daI1EfzZ5rp3ndw0XHQkPx2AEXl/UqVo7ujzt/Jfjp53kaDCCPr+QfmSpM+iwTcu3hP39f3zsHMVyRJUzfnc8sMRlwWG4W9ROs5urtH5cGofE0YFRPEaLBD4HuU2DrfeOPeS11ComTnTWZHDloJb/k4EZ/3CvE465/jwiIkIWK509TJUkfgHL1T/u/Vb/9GPb+t43oaXAy4FfPE8OkgiYFdlL9FhLOjk4HSRe4bpNAYmRlg88VCpg30kOEmLiOZxkLu6+ThqGxsZsUEydiZa56m9poc6JoWR/aNF/OsbA5EN7JKY3Ye1sf2OIpu/lGDAb1zH9Q/Fx6RXDifS2tO3XrXdZZ4yCl0oGQ+zys+o6BJSXq5Vou5s5at7mxSJNEA6qzqFN2zO+HQ2ZB765nHimFxt3fJaciQyu+GZ6w5dyThQFHNm3H6++0vLDRR8prPhh/GwSu7Pqd+6l7XK773Cl9OnW1vFKFrMWf/onGkz25q3Txyz8Hn+A3vR/X97DxSo9oZ2bo7mVn6mbgZ4ASsZxAbGBigMjORBhmpvZSBAYxMwgSYy2vecQ/y8GFWrmsvn9821frj6uy3//LWq9efO1NY+ETsdpo7ma4QOPNPnj38Gw74V8v8bR13x/Kz1+LuVumXUvvJfXA6ydTXgrExk7HeQUY4rYRDVbg7AoMCI8PddiY4baX2M2FkJlask6kXO+bvabpRn2vIcR/dfDLH2vlQbAPnWMxqo+WhfTZi2+mdHP/VjviW55DjeuqdDotIKVrAozW3zsTRyGKDGukr5FTHiw5hi1W+yQ9LmuTHrVB/a+e2zGbNTFIs4RYcYogHzOJ3nbyW6N4nxY8lJP7huGF+qTbHvOKOVjS3c9ic3HR6mf6Yw9PgJPdbdEUyFWkVU47tueEbn16qOt/F5tZKC/W9S79w3CDPROfDJ6IOlb0nsQ5gzHAkB5wE/T0YO3QSEyy0VGwA/vRhNGYaRABgnu0jY8wcfHBS3YE5OK26ctprMXLcIRKAcwcCtl0Pf+bcNsgs7HrI1t5kqajvsON+a2/9JHJ71l0OuBX91KCBh7tvgvqUF1NkeCsYSAP9GAqJDFCpzFQIBDFSKPDGS2VlZaP2t/fRmNhZsHa2QZqxibqf6lhSETgKV25E2RxT290xtXwy4Ljmh47ajP5xjgvgFE+7wPCIJOS488BxDXEdl/aGJrJu0Ym0+0UN0pMM5jSZWy+2WzeLFEXHcdmPWKfsOx2c7NYixoTFJu2Vhy1t2a2LD8xP+6QcLn3Twr/huO3ZFWvlvFXZSbXf2sWvc99O9tri5xv7sERtkZtjjIXVrN2qX2yVAw+kOB07FX2oooOFdfx09ecTFWUL2Wk971l6eyncnCww0XaTemkDJIyTkUQmM8EmiQljAHcmsbSSZswal7hqkTS6Az3ElHJ2/9XtoYGlzlRObiHnfaa2a5eMvPijdkffaqO/Kkdqbm7mef36taCioiLhRXJAakwQFRVtB3YH3IvLHysHuTEAmmgWFxfHReEgucLCQqnJk/EvSaPv0QkiBLwn0Lv8XlNTI9Pd3c0BQe3HRA33MgvxCwrPNeKcMKVX39Ho6EZDDL3vfIXWKsl/pywqLNgmLEH66vI/ukZXklo1V99ud3SdmBRm7mrifcx09NYvZ3Hk4A8ePJADdoNceh2B4uX5+fmj4YJ7GZEcxF/53r97zyU7VfYrW9Pg3XW/7embkfeezOfVRFtlfdgqf3041dlJE12m5pVd/KJdQnHl9HcGlgs8rOZzXsWr8+ndFDUmknif34USN//INCPmiUJYVOSOoRU39VrmktPHE/fmvGyYsnqXefBqG5Wds9lIX8Wg0Ql+TnXnBBIjF4XCwdI2dxJWhGK0VYVVkw65Xzh3N7tkuuzimaXWLut3r1UXu/mpHhGHkq19ztw+9LSLl91mm9uVcQqU1OnyPDny0p/Hkz8+gw7D0lJqZ86aJ4FQSJ+Ns/MHQ7Zf9S927GdhFpm3buLpw7vWeIAM7kV6FJ8tqq5mnywtTQh2+DAeSYB64oExSyiHkFM8PDztEKetxrMx6ncYH5PhIj3CCODS26AYf0FBgayysnIJvTGEkFMgJ086ePCgO6CUpoSEhOgTPbBq1apQoN4oRpQy9AoFhFXAuHHjCnfs2HGCoAEMAD98CBQeDkuWLMGFdiUnJ890cnI6BfBJDdT5eOUcOnRoL8DD5AFtspZIn0v7ErcFhWfZvujkEDSw1o/e6THCEYV4vpQ3WWVwX0lpcqnrrk1u8B26fI1m7040iyMYWnHgyzlGLp6x9VLSmL7d6iNnLOT/cxjysazY2FjtLVu2nACdJ8JzhNxM0dHR6mDDk8AYQcjtddTzqHNJ0TPlwBuXTL7UFTnuXnvfG5FJj+fza85/bemy2tpQ5WvkFHrHVZxg9fZl/SAmoz6tY72Ftp+7kcTmr8qDUMy0KQrZ2jrWaeUV/NIJWU/nSc+Txa6dsZAaD4dTxaml0wJOpGyOeFC4UtV8Zb6Zq47ll6fCqMyTe4OP7Txwa2MfoLGmLByP7fdymLdAji21PL1cyWdf6JnbaTka9WwD/dZbjC6f32pq+6keOVfyVvj43fZMLOsZr2O05l7Kfb/R1utn39yz2WQTXt8CcGKEisK0/P2nDu8xWjfr0qenzxe9Q3de9iuwKaqqFuEfR6p/mB+mKk2AZDt4cN+GoqJnwmFhoXTHNKAA9cAxlYKCgrYSjbXVq1dfB6jiU0A+7ceTQQANFRWVZKCJcl6wYAFuRAIYS+Y4OzsfB/aXOfTojxByCuSuIZZHZsCxstETRoio/v7+XnoyH2YnRDyGWAcIicdQI4hoUj42GlHBgAwhdhrhmYF1j4EIEonKuR9duvDy1ZQDEXdqVSXGylJPn7dcpayG3ef/BNCA5FoB91xb1SWbdKduaUBEvJXgGD7mze5m2lrThRPANuylwXWz11pvj28aLY/pOev6nDCTdcdZcRkA9SL0Z6iXDzYCuCV9sjioFxHPfYVlpjXTeMBxr0fefbpAQEuzydxlmaWRGukr3iW0KgVeSrU9cSrKvbS6V0p75bLnR87ozBzN9Udc9NNP/eN6+eOnI/eHxLyYReXm51lhuzhtn8vUVSjW3Zb5drT/1SSXwxci7LtGyWCHfY9Y2mpjyFk+A5v4eifv8/RK3dpMwWh23sbRemvGeUwVIVWWF7xR8tkYcPxOzuO5k8yWvjCyXrR57STuW5/Vn1Utf/FitNvxq0XmLCKS8Dqy3N9g9aRT8rKkr3ZTQ0QCt56s2LjD5wKnrCSrrYvRXru1o/f+51T5YOjOK/5F9r0sXCLGrrr+K8zHbpL9or/pLTx/9Tu0CgIT5AA9/wCqJQn4vpGebyD8NECGcSmdPuoGfcsKyKkRv+3hFDLm8UNx206fzLQZJHGxqc2UeWG0YWGw+pxRoTJCpPIPTkR69OD5irhbufZRSS8UqhqbRVeZLnrm4LTYUAWAAmAkttLQhtnrbHfG1wlLkmy2bjh+0Gzkph94OMW91/hi0M3EIk3ROQu6rJ1Xmuuqkz6D8n3s4DdvOkU2ORy/mnC3Zh6PkCRpxfqFJeqzR59eOEUggQscGE1KuZndCrlZ2euCgm8ve1LTM2a8yqRmj4PWq1ZNIT34YB/mtCsFK61cD16q7OPj0NDSeqG3ds6pJfoCIehSApr0o8NyDW9cf+R0O6FWiV1UmOTp77rCbAGGOLUGKjMrFT03Rx67l1+9QNlkZavuhvn2+mqkkE8dBG0j4y4krdy0Lcy/sYXELTNZ5rWusU7ECr2J/vKi/3Xe2sK2MSl3CgwDb6SvzXj8Qn72au02W9uV1itms4R9LO/swevbb1wvs3nTQRPXd9ZP3eg0Tu8jiOOvOuXP+txv67jI4A/ulcyKDCjaEhB4T3sAEIQzZs6smaI8umzEKM733bQ3sNsgkyqL3k3PyCkSfdPRy6KoNqHF0WOdxZppbHfRNh0N7uyblbMtHI/FN/BJYGbOxiePWo90/YGOy7XD5OyVW4klS0bNn9Nmaatvs3om6bMV7NOBFh740CDkQq5TRv4rZXZJQUYl1QlPJ0mJlPFyc7V3d1FYX71+Nzov94lUSeljIQXlsYNL1sw6d2Cjmtun28+XpS8lA88nO1+5XmA7SBZmVZwwrmbatIk5zKyUd/3d7Ry5ObmznpRVi/cy8jIvXDYz0cdroYkI5x8XKOqK2see3H/DK+R2/mrOcRMxRXWVdMXJwkVyo5ger9USQSv30KHS++xu8SuBsY5B4fds6zqpXBLj5VsnTVfKlh8v85ytt7WHl5GNVpD7fHxm8TPVR8+fi45XlcOsnVZu01k0+tKnu4hLx8PsAwPynSvr+8dMmDUNk1eWS5SUFSiePk08XG0UiZB872d1Tnp6/daOi4Db96OezAq4cPfwy+o+8ZqGTpHmtmYylWkA62VsxSgAkufjFMcEhAQ7x06UrdVcon7J2VAa0Z0MoXbQipueUK1lYORxq09MHjN3MDh10GbMxh/ouNwe609cib2Tt1Jqzsx6MycTJ10NdsL4LGp/9PmC9SE3H9o+rKiQ6OodFBjs6mHq7xuEkBgrxsjCiQkKCGHCI7jfrVw9I2iNjfLR8RxfU+J2win1RqM1hv4AACAASURBVMdzp3IL6ma8a2wT6qEMsnTBJQMqvBEJCfNjbNxsPRqL5963dlviNOOTQ772+nbBqOA8A9+r93bnVTbzD8DlDiZgsZ47awwW6W8t9ulNqo4CmtA+n7MnHhRUTX3XRR7Z1NnL0dHSgjHRejF2MjNGY+XGeEcKUUYoSFbN054au2qN0omp/KTPDvAK7pbMuhiQ5hSfUrK6pgkuGcBlA5lJ47CNTvoHHfUVtv2KDkqk82/tuJ+8F7DFhhSuSU4pNEpLL5pU965NmAK3SSkw4U9VnfR6zdolZxetHh0i8wW4ADluRtLzuVZuu+M6mYTAcdf77DJTRodT/wix9/86kBCSa6/D6Ut3knPWSGtMqzeyWmmtoyaOyy38adnIgcISH+reTc5cm5dZKt8MUE5uPmGGUdKjyRpzVS8arJh1atKfMFOg0/7wiznrE2LTDLIKS6a09lP5KAwMmLLq5DKdZfP8V61QChMX+DrGi+CXx45GbgoKe7Cx7FWLEAcXHzZdZSzmc8ZefJwg6fWXNkhNqtSIv51pkP2wXLPiRZ0sicyI9cPNIglFqdaFK+cHrdGecUYN5+70x3Ly7zbOO3E53CUhPXMpOk4eITECszDXPe5hNd31f7X3zyz//8JxP6yeTNhrjLuJBWNpasKY4XIQuWUQY+TnxjolBIfu4eKeYKPDgMZmTKa5uZ80ajTzW7yT6e/Zwe2AV+5tw/gYObA+Pj4MXRPDvZCPpxM6JW9vx5ibmzFm8DlypwBGk2fHWqEM3CwOeGW0VNF4+2kYSyf8QAIMElUI65HlHCqD8KIFeo/t7MT4wO4MEDmncolipI/baQI92TsrMU6I3rJ2wtVaMgdGHmDBBqU4hrJbEGZL+NDPJHT9sbUH42kB5AZ1AGOcJIU1/dmB4Pfsw3+irv83jvtPGGu4jGEL/CwWIGVlZakBFcyIFStWEB5yAAv7crjY3AgpOHLoKX779m0dAQGBBqCmKSCSu3LliimAK+KBUQM3K0BVVZVUfHy8tp2dHUK94IaV7t27N6unp2cExIKv09MHwA4TX9Y0jtJdpUO4nYyPv6EpKipbN2XKlFKC2Z/V//KZLSuXLwkTFJTGBU68fNk77t6dmGUWtrroGhkuJQ8qe0guNX6ZxYaVZ4mAAfG5mZM73zSPWLtkSRxR25Kjk43YxbhrZ6iqDp3+4n2uhFxxnDN9zg2gU6F7MfvSpaDVG+YZxZGk8ePPVVWFvBkZ2bpGRrYXierKzi4c09n6XnTBogXpRDLhUfHjFcbINyso0Nfnxu0bM0RHiTbOnDjzJUF/kK/6X3WaPX/2LSIqJdrbt5yX48PmmZs6xhDpA2l3xpXXPBVdu8yA0Ibo2fT0AqW2tnpxGGuE/QHxeV0IX9aDf2QQ6Mzh6+trChksEiBFD2670LgHkIbm+vXrA+lhARBtU1JS0lLS1atXzQCAMdbHx4cwwIyoYqDCClNT0yv0HAWoO/bBQKkwMzMLImrAmjVrLkCOoWPQSFwAxqNHj2YAXYgb5GrZQBQXCwwMtK+qejlm9+49LvT0CQ4NNYa0DqMPenruJpLbssX9CAAwig0MDK7hbg0h35GFhWn0rm2b9yopq6d8KoO2gNXV2OgbYXesjh0+burrd85VVEL8TV8fYGtpcJGBxgJ/oTMuuIkEx10ZuemLTx07ZXrq9DlHsRFCjbSBQeBVYsRoDIM0pXGs5UKQlcD3WqzlyxfFY4/s2eFOpPOeHdvOScpKPTMzszpNYGf2FSuWBrhv8/DWUNOge5q6bt26ixs3bjwMAALc1CCPClMnee45vCUqKt6I6N0+4Nq1NS/Ky0dD7htCMMP2Xbt0ZaWkXm/YsCGTXp+5b3F3lh8nXw1yuGEutN0HwEPwtm3bjgACDTcFTVFOztg9Pp7mUeExuFQyqP7Q8GtrCguKxhw+dPQgPX0Cr4SaFj95Iu/j40lYFvjHUZhEKgCAdJ6gP/jRuAeQzjEAMuG2HxajGUBt4+rv729Bj20jLy9Pw9vbe8/wVpler/3Jd+/rusV37Lh6LDQsQbe7pxdjgksKPQNUoMZhwRjgp38AXugQYwu8DEIKxqHSBvs/bCIoVAwOSzEqAxXj5GHCtm/feGGDnto+QZwDm7+h4vCjv6kFhh33b3QsclzPfTePnb9wU5cNSM36BynwgzwV8R+SMPBNDBBeQ04MW3tYeqkYP1xHa2l7j3Gxc8Jlh06449CB8QuyYbt2uZ4zXKPhNey4f6ND/h89Ouy4f6OzEUCjJGdg4ouK+glw6QFjgqNqYHMZih/CXTTgFaUAvysTraevl8bCwg67ZkiyC0eerKysGJmRiTbY304js1DJDJzU/qkKo/KlpVkQD9M/xl31N5o2/OhPboFhx/3JO2hYvWEL4Flg2HGHx8WwBX5BCww77i/YacMqD1tg2HGHx8CwBX5BC5DgMvrq8vJyWbjgfZhIf7j4vgVyp1RC+oTP2Au+lEdyEMd9ATGrz9I9fJRDt/xdXFwOA7jiAly4/4w07KMMXFqeCilKnP38/OyJwAyQLsWsoqJ1vLu7KWGsE5UXDrdNqmpr5La4bXAmatuxw1dOSMpKP1+9es45PBmED7ax33XFxtLm2OTJI3ED7EXlbzV8T5708PY6YMwLtKZEdeUV1Wj4+/lt9fLyMuDn/y/R+afykZF3LCsqa8ZvcbfeSFSOz/GrRySkxMvWrlxwiUBnDiur7ZetXWyPTVWQIATNoLY5Oe0NMDGxPKqigt+2x4/fzDh19tSmC74H1kN/4GaoCL/1wLz2ZbWcm9t6wv44fPiKp+RomefrVs3+D50qnu6HjgYcHCsnU7FqyczLRP1h67Drop21y4mJEwWy8GQKy16rnz993u2Q515zov6IjHxo87yifIzHFnNEoED4iY+NX/e09KkcxJf3EgkdPXp0L4zn5+AfwUQ6w5g/BAQRvkSsLSUlJcqXLl2yhZiwO2S6IBxD4Kuq4B/uJLh5rwX0NZKQ9+cCkWJw+99aSEioZtGiRXRzsQKYw0pERKRm8eLFuKkfESIB2Cu2ampqhgFFxzO8+p49y1OMiUlav3mzx04iDO3du6l6qaklOmJiY+oHB/sYWViAAA6FXhjgRBbOZHt7u6kkEgMtLT1Nr6a6VsTQ0OA0CwsryDGTu7t7aICwpVEGyRQmFvLA5YuXHMTERN7NX7AwgoWZAa7nM0Igh0SjAh/4QF//YHtnN/u5s372ixdpJqqoqJb09kMyjUE4DGYhY2xM7LRByKADbBwT4+PiF9jb2vmLiYvBAXMPYHIHIH7LBD9UGhsbK62vb4CWm5ujlJaSNtPG2vKqoKhAZ3dHD4rx0sjAOsnISKKCDAVyJ62or2/kNTTU8+fm5GMAQjsSZCajQXNo7OycVCA9oAQGBTiMHCn6donO8ogBCpUB6oGgE/wBnjUaoDqam1vZL1266jBrlsYdVVW1JxCdYqJRSGQaUKyRgJANJWno66NQ+/u72X18TtgtW66dpDJVtQSAIgyDQ+GsQdrgAAOViYlMefQoVzEtPXWx+QaLMwAM6GRkZALIfx/Eo5HNe6jMzOyUuLjYVXV1jULG643PcnNyMkHoiwH1ByMrEL6RmCntnZ0D10NCrEXFRBoWzF8cw8HJwDA4gEHb+hBtH8YEOBUmBkZKR0fnYHBwGIwhvqb587ViObjYyP29FDKV2ocxMLDRWNkZqW8a3rCf8T1jo621JHH6dNUSMpkRcND9ZAqlDzipGDFOTlZqdnaWYlx8wkIHe1s/QSHhnoH+AcY+yGTBCTeM+vt7aP39VMrDh2lLa2oqee3tnY5aWc1HbJC4FDeIcaLlbYv0OqN1Z4n849q1ay6CgoJV4B9EoBF2YJrZoq2tHQyJv75KLofKBWCFIrC/GABIw4togkRy4LhKERER1r/sVjk+vsLQQG/DNaVJihgbGyDQ0YBDJGIwSlFEhY2NA2traxlyaB4eLqyzsxs6nwQDG4YuMwJDAONjb+8gZFkbpALFIycnNwmYPqCcfhqUQYXnKTDA4TtsAOT6WFmZWQcHMSYG+CAwBciCs5FppEFmCjMr20B3d/sAGxsXT3dvFyuIQB3MQzHc/l6EoqLBv5kgDMRMbYK0gays7Jzod8iVkByK8aIPEwuk/aNQgUyBMsjGzs5E6aeAkwARNJAdAvoT4kYMgyQSIwCzuigs7JBFi0ZmAGkmaBP0Ixk5LQ1CTaAztfddU8vgyBEi7D1dPWzg9MwA4YL7x5Qh+5DJVBq0hUqhUHphjupnZYHGUiisfX098B2wXjIhGUag7hnsY2bh6GtsfN0nKCAMcBEKMwx6aB4FqiCDPjQqA5kRLhdQKWgiYGJCmb0w1kFwEsjw9Ud/wFzAwkLq6+7uHYRyYYZhZgSHZYY2MaD8QH19/TQKZRD6hoHCwcHa19HRPcjCCtZiZGZsaXnHxM3NPzRxQb8gfQfhmf6uro4+Tk5eViiTGdrCDH1P5ubmhL4bpFEG4BoDmdw/MNDTx8QEMTgahY1CocFESgFbs2ID/RQM+pxGodK6W5rfc/T0dmD3H4SNEhD4dhI8eiv09/ruF3bcakNbW7dr2dk3pcW+SFT1vYw3XM+vbYGEuDrTDZYWV548Thh23O/Vlbdu1RtvdnMLfPAwRGoEQa7V76XLcD2/pgViYoqMN7l6Bt5/HC414n8gev8ZWvvLrrjIcT02eQSmpgcMO+7PMJJ+QR2SE58amZtvDUp9EC0lI/PtGRp+hqb+so4bHlpvvH2bR2BOfoAknNDS5Xv+GQw9rMPPZ4HY2HxDFyeva7n5N3+5MfTLOm58fJ+htaXZtaKS4F/u/eTnG8L/PzWKi3tqYGe3K7iw8Bd1XMTDSw/cjviGvoVn6c/KQcPjG2XI9AjZkD5Xr1YaH/Q+eCWrwF9C4H/IZ/P/c4gOt/pLC6C71GG3cuF168jlgrzwv7XiorKgfIhCEF8QQcR9/xTJIMJDkM76n3V++vip3LmT5z5jmP+0oW5ubhdlZcc8s7OzIUzViORd3F3OjRQdWebu5n4Kb6igCjU0NGLhwvVOIraA1PTUBdt37NgXHx2nQxSIPu0buvvYkTiXvv4+3sfPwwkd96LfxTWlT0qFj585jguuQDraWTkdnDR1yhMrK1Oi4Dn7jFmz4j099+6eN2seLlsCXP6f5OjoeADiuUvouUhqaupUyPKwIyMjYwWR3OnTp81evHihePLkSUJyM+iP80CcXQp1niSwMxnSXSRAzNxjxowZhfR0gn64CxfpNwN4ABcQA6wMs3bu3Lkf/tYiYmYAnZ2BpHscAHDsiOoC4M0+WVnZYtAZF5zz8TkHS2u7iSrKlVZWVkRYANK8hbPSdm3ft3Xu3Lm4F+nvJyfP3bXT68CDzHtziFhU/C7E7PXyOuFEJgvwpjwMl5IhOOA8d+mMy+PiEgXfUxcsidrm6u4aJCsz5qm9rS0ukQDi+F6svTjywMEDu+bOnHsfrxyUwWPHjq37srIeLafHogJyC/d7HTpDQnlPquuqBRYtWESYrBkG3AIIvr+H4DHdQQBycwCA0QRpRp4QNRLR4MyaNSuTKFMBYnwHR1AHEAchLU1JSd30S5cynKKio/QK8kMIt8ovX74UgawI7EpKSl/lu/moX2ZmnqKYmMA7ehQv0dGRq+bNW/iQKAMDut4H7ZoB9CbJ9JwEZYQAGymDk8QTySFKFbCBINHEhp4DkMYsoAh6Sy8HUWRk5JKVK1cm/RmZHNAELQVbJxOBXSBDgxjoPJseTRBQBMm/ffuWF8rBRTIhnSEflAJknqifOHEiISoIycEEITFq1KgO6A/CXD0R4eErNRcvziDqD0DAiKcmp83QWbYonMjOOTkV08Mj7jhH3khbl5EBp8oEjgtpZRTq6uoEtLS00ojKAvssEhQUa1JUlMNlG4HxwYyANdBfGQDU+IrZEpWL7HznTor6qlVLIumtzA0NLVLZ2ffn/7LvuLHR7wxdNrpcS8w7LSn7J8nIhjeKwxbAs0BsbKGhi6PXtfRMYsf9WS33yzrurfB6Y+CLCryfce0vh4Nelr9Rkh4rjC6vfzM96c/akf+f9UL81yXV7UoTpbhRahm0UgvmlLyRVZsoUkhvxxEXl2PgbO8dnJYZ8ZfH0I+y+y/ruEl32kwszS0CCvPCpfn+AnKKVk0Tcz6w99FaUxN7DQ0ZQjbAH9Uxw/V+mwXQwdDz0sYpTntO5jja2K7VmTcqLfFGzvKrySnnt27fKjtRkoTLqohKv3Mnz8DBxmvYcb/N1P+MVFRkjcnWzdsDUtIvAuSRrfp/LbW5lDZh0/ZDBQZO+mYL5krhHkz9r2UOy39/C6D3x+Lid6o7jl9Kd7S01Zs+kedeekLGGv/oB757z22TnchLz3GfGdjbbg9Ozxhecb9bzyHklLura2Be4RUZXl62KnRAVJlToxZ7v9C5B2Pset1YO15DXfn6ZEWph/cS77oXllQqUAEGLzNmYuVIAdnHjRUNM0JuBqtMnCVPXbN+qe3KefKEt6O+W6OGK8ISI9JXPip8sfxF7bvJrGxcvTM0ZqZoL1I485FEr/5lj+SVSyE+dY3vZCACwy8vPfKh6tz5t7advH7Txt5ST1eJJzEjo2T1Uf/4i6fPe4xtbO4RfvH8seogrZ9qvHzmZ6fwKI7r4Lg9OOPhrd9rq4zeHa5cemLfB4mSB6m9cB0EbruRBuGGSv/AshWTAyUleQm3If/2GESOC4dTgQ+KAmSkkONC0uf7yY+cd3uH7pmxYEEyI2crv4zsiAdcHNz1UZFRXrzcIn1sZJ7unkYyOxMLF5l/pHBTeGzoqKkaCs16G5ZtXKQiFvhv6zxcPn0LoMl3/47wI9X1LepCwnzM7e2dlLamfgXXLWZLp05ljat9+3Z0zKVHEHpqnN5P7hrs6+sQZiHxdPOKjH1y/2ntOkdn87VzJmKJj9IeLg8OKgywd3fUKmp4rtzeXi85QUo8XXv2mM92VnF3cgwc7DyD7z0EyOMPxLtn573RzM2onDvQx8jEzgL3GxkGSF1dnQOTJosXaWrK4fJ9033Hff+eJq6uYl6L0TixkZJiGDuwGL5/04JVVj3FfM/vXLtKd+KNHzUYo2I7TVydnQIKCi7BikuqokEiqztxGdu2eodtOnryqLHaHOa7cI2TJzo80ykiMsHRxNL6kuQIcbbSB7VadTVvBWZqKz847Ht6tv3GDZu0NDhOfAvA5Ee19f9LvbWllWNOnU09xSk8rmXmPI37rAyYwBX/cC8Li9Vrx8gxJObnP9I5sic8eNduz+XqC1mSX7/sE7+fWrA6LePxlidvqDyum2zWrJ6LJcVF3Vt2/sTDK3MXrbnQLtjLqTptdLC2Im/il3aMvp2h5+RwMjTtQZisJJ134X/b/ocOxQUd9w4xmjhBBRukdmAMcJmzob4Ok5MXfRcRs18Yr366jtvURBs5faph3cHDp91W6/IHwHVVhqZGTH7GDPN7fucPmy9bKYCSFKMy0GVYRCv6kVr003I//v+XtKNEv/+0DCQDdzuH6vgoP/T/kWGYsdumjX5ZuceHrvUhx027n2d37GbKAa8jmyeMF8Uq4JqrcFxIxo7de49bV/f2YpKycthWO7eWZZpihc+fY/O8jp7ALBzWe+gs5POlF/T+s46DlQIRsgIvK9b1J4gvJIc4XDuJJgq0y4Hvh5hc8ZA4CHkG3yEZZPM+OjKoHvT9UMpQvA9C88DvIfEl1gs/sJP6I1/tp58PbUP1IX2+ylL4QR/ULoSu+1un8xBzF7Yz3Btz/2G1GgOfODZpqhp2wltPWVISQ6QLbImxJXrn/O+e8TnkPlFWHnuG9EHvuKWl7ZM3HwjJMLffsHalOnNyXFSirpPZWf/3cE/fO2j/buvVike+1A2h76Kjnxk6O5wOSE49N2H0aOwVJCXDBAWHxjBq51e2+GIM/tmwQN9/OeY//TeyPUJckXbvvhv47Em9clCI2Xy4NszDMIi1HvFJDy0pzRl946Y7L06fsJLOnTvjUvykdNz5c18jp5Djqirr1lFoTF1MbH1dPNwCwv2dvFjtq3pMXJwbeL/7YXZAbfyrVMDoojX6/GGjoSE59C9gc6DCWIBxxMQIvA0D3Vh/HxXj5uUZGtJtLWRssFcCLqC/xx4/OzkEV0OO+zCjyOngtdg9Rw/vHCsvjr244BsYmHfvxeQdu/bdfNbSt/2Erx9jeW4JNmWCEjZLfd77pLREgSdVeY1urhY3HS3mOxL1BKTniAAU0qE5c+bk4smgtBCACDqUmZm5DAZIM1E5gJiatWnTpjOQ+2UhJyfnUPLnL5yEBCik7ZA2Rfn8+fOriJzS3d09DpBTJZDKZSueDFzWHwlsC3ehLDc1NTVcBNKQvWk0yYULF6Zu3rzZAf6+g+e4oLMeoJ6809LS5sAl9q+ALMhxz549u726unosULiYELUdqFv2ADCn2MHBgTBHFXrWQNulhJNfXnDUePXBCwFXJbg5SR3r9bRyNKdPOP2+tVN0t+eF841NbyuvnNrlqrFYJgadKpc8a5/qusM/3c3NWV9lLMPd2xGhpjvcA09ZOWwOHRQZGJg+Q+6mtqpk7Ke6nTh2dYf34RDH5iYe4bFj5Hr6aXVsPDzgR0DN0d//R+JBxH+NyAVoJEQtwjQ0SsnIp2Fc/hfcCAQGQ2vLX/kA1woTM/a2sQ1rftuLjVcYi3X1vcLOnjvjXpRTbXD/wb2xsQkeaGL9zycrK0XNY+v2a0PIqbft7UKzVFXvfVk1ctypU1bW6a4ziBg7XjwP+As4Ot5xCR85etRqxcp512fMmJBDIvXCey91kEIh0xhpMAECKwQqBxgHaMA4ASwKZBqZTPnMs6mIbYVEHXJT0iADaRD+MDBQSRQyWAiIxIENgYSB4wL1Afyun8wNDBdt3d203l4KjZOTkaG/n5NUmNuqEnU7yjAPABgfHTcrrdjlyJWEXQePe8jISZGqwm8mOuenvTQYJTVBdY2h+uOSJx0COcnpI169eouxCIthxWXF2IwZCvd1dKZ5zpwiSIh6gqROiyBRWRZRLiOEiEpJSZkCiKh0aFgnURciVFh2drYqOBVCKrXhOS7AHacBCkkYoIoxRI4LsDd9MTGxBgUFhfsEMlyAiFoHOqcBWgmXKuWD43ID59g6gEdmQNvKvnRc5JRAayQPOs8Fna8R6Qx8SRqtra18UA5hWA3BQoH+qJEeQq00L2/KsVPxt8YqzCpYrjc76kHqi6XJCUnzZGQEXszVVDwGVB/Uo9uDryqrqMVZ2S3aLz6O+UVqcv3Cy8G3979pJis625qs1ZjOnFyYkbF674Gwizv2HF8ZGRexQU5eum7VWhWvT/P31ta2qR09GuhwIzzbyH3z9v0io2jvBrqbyUzA6oHcsL8fNiAwDtG4hEEN45flQ3f1QToZGOPgxRQY74j9Huz02fgGO5Fg6MN2ANh0YEyjnQ2iDiIDQf7HPgf3AEITNlLfACMtLi5lQ21No4StreV5ElMTbe6iaYHnDt4+WlNVpRx8w4nvi8mdLSwy1IzuVrmriyY2SdGo/ujx86bLl3MGoI5saMDk1FTNS0+e3W60arnsDwujxMZ2Gjg7OwUnP7w0dLCAVtyUxBzrq7ceHtx3zE1aGrbPoP+ItKRik6io5IPyikr1LIysXW9qXos0dXR3yEyZ+uJGzI3Zi2ZPf6ypOXXL9CnCCX9lzvxyxcRzpI8yH7aVQ/8kkvsWmb+rJ44+f0yi+Fvl/4wRem37J3SqyiuRu5n8zLq9l0mUm4MXqL0YOJ+/qJRWmT4xXnWaeDAPIxMl+Gz8FlZWHjK7ALmpZaCTpbNrQLijnSzx5GmD6qF9bqvVpbAHdwsztC4HJ/v6HNk99W50rv7zqheTJ6pNKDTUVdz/aRvu3i3Vc3T0Ck1JCZIQF/86Kfc/0aZvKWOPZ3xASf6LeRERjlIgP+TcB/enx+fmZKvcitssgFcGXcft6KAJT5lg98Zovd3J+ZoT0Ms9a9NbTMzRwebMxct7DRctEkXvuD/kczu62cjJyS4oIzv0j3dceNcpyChYcvte6Q5XV6NFXFykoTSevW97R1+9Gnny7oNi7bYeCsbFwY5pLVl4Z+UaDbftO46k93T18y9brnlAf7Xqzh/SkOFKP7NA6u3cBfcy8k3vP3xqyMbNjwmOFBwwN1k9f4HGiHS0cr2r65Px2LzPv7mdUaGjr1NQUlE4wcbJ3jv07G0HM129Y4qqWGle9pPJkYnpNls32jqg1E0JkWmWFa31Slsd9fQ+fU+/m/BEz9Jya2hRSczfuh30d7tw+56I8xmpr9Z67nexRYR9Xb09lKjIex5v3jwXjoxyG/GXHFdtsuWblpY+rHvg3dA7KDOZG+sbaMciIk+u0tQcR/d95e82iN7z0dG1Rm4u7kHpKVekxaT/dwDGv6nbcNm/hgWS7z7Rg/u4oQm5EYB3/3FkDJ5Hww/77L/uThkEBk6GHsj2CFlZe6nYoiUzKkOvbxv9PzsueqCqql2OsY+FuQvr+s/zzCRmkvRYjnKYvdBp5A/5xMa+M3Syd7hWWn5diu0X4wv6IQYbrvQrC9y9Xaxn57gv9EczYMBOgr+srH8kI7WfSmLBSP2QihXx7fLwsLUToQJ/WaxyXNw7AyfHjcHpyUFSI34xvqBhH/o5LJBw+4meg8Pe0NyCv3eR/ke05pd13KjwxnUu7huvFxSG/ND3kx/RacN1/jMWeJBatW6D2ebrj/LDfzn6IxIKekPcjx+O6cuIzIEuE0P4oQNCBnRJ2dAl8BEjRnTAsX89UVlZWVlTIC6KrtLhhk2AqZ8XQiIKKioquOk+ULk1NTSZq1eTLK4FXdtanBMgwS6AfyIIIQqZqqoq7smTJxcR6fPs2TNFICVvA3YGwrZBKGPG2LFjnxExckDIhKehoUEO4pR5RMAKVD9iQoDw21hoG5L7I1j4xae+vl4SshdwSEpKAyv71AAAIABJREFUlhLpjNjsIczTBn1SjSeDQBO5ublQjQp6nXlPVA7IsUAMejqklymlQxIgBGWN+TOd4SI4x5gxYwh1rq2tHc3Dw9MKegPMgfhTU1MjA6QN7URyCDjx+PFjVUVFRTSGcNuG+gNsJDd9+nTC9CvVZa3S0QlJlqdOhm+l57gQwhPv7O/klhQj7g80hqBt7TD2a4haBnaeAtk7UMgNN2MCiopklWaNAZ3z6Y0haD9vYWGhEgny2OwABoNJkNZgDVGlhoYmEfLycoU7dmw7QM/oGzZsuDFy5MhioKbBlUOxPnCiHH9/f4f58+d/BUFDZd+5E7fczsHJr7LoxSQSJ+krkAKS2bP39LFjR+OdIUMBufx5mAQ7AecU5GE5U17+VCkkJHwmkd7Lly+/DYwcRUAHs4PACYTAaQt9fX0dFixYEIUnc/v2bR2gfzkBTAjTxMXFCR0FWBAW29jYnIEJTo1oYB44cGAXADCUrl+/vpq4PwyTQKf83bt3e+DJIAAGgEWyADNiC8wVcXQcVxxy2RRAf9no6upG4skh5gZXV1dfYKaYSsTeAHbeA5PtBEhVQziG9PT0roOzFW7fvt2b3hhasWLFdZjYiyCXFS4NDIqZwxjKA2ofO4gtfwaq+FgusJEscXTceKqyslyFyLmP+1w4smXzYRcJicmM9Bx3/37PAwXFhUq3bt5cSqT3+vXrb8PCV7xnz57teDJo3MPElwlAFQdIv/MVXgI9g1Kd2NjY+hYVFSrTm9xiYmJWw1i9DMFlGiegXjjpBcbfvXs3Ajqtlx4qCFUOnScMKxeSaydqJNDJSKK6QKaPwFE4YZUcKSMjgy5F434g+4fohQu5pufOnj5Y8jiQ0HGhbUIw+7IAzUsdcVmdIhwcHD30dK6srBwL+rwGmf+e0H1SIFq5YIYfASsXIUUOEkchK2i/KL3VHXUy7DpY6PUHsiH0Rxe9DgYQx2jY+TQQ6fxBH0ZY4cbA6l6PB674IMONdIb2VxKtBNAuASiHGdBcDUR2RvQvMKl3Qxl0YZGo/bB6Iagm7sqEykerN0yQaAzh7tpAH1aQGQkUOJVE+qBQ542QJFPPgxe96Tku0gd+WOm1DQFrYDeKxv07Ou0Xh/YjO+NBKdHYYAU/FIV+r6Y3sSF/hfEo9cu+48bFNes7OjiG5OVfG37HpdfTw98RWuBO3OO19vb7woYPp77jIEHhIGcnl2vDjvsdjf6bVZV89/E6a+t914cd9zt27O3bzUZ2trZBRcXXh1fc72j336mqu/GP19nZDTvud+1TBHl0dHYIyi8IHnbc72r536ey4RX3B/RlfHynob2d1bVhx/0Bxv9NqhxecX9AR9669VofkFMhRcW/XlLiH2Cu4SpxLPDRcX9JAEZR0dPJFRXlI3V1V90m6t3Y2FhtCC28gfhaPr0RADGmxXDk/RYCzbhyCBgA8UljYIVPJgJzoAB8XGLcYlsL2wtwdA63c7/+FBTUzD99IsE1KydHOyPzMiHqBcAeagCMEF21alU0kd537txZJCoq+oYoSwMK9Vy7ds0U7tomAQADl2MLhQPCwsLm2draBoPOhIwTKJh/8+bN+ZBeI4SobShQj3Sml+0A4sarIITTCHHRTLx2odACXKI3hthsEhFIAz2H2nbx4kWTtWvXJkPbcENZEKKQhru98z+0DTeUA3HpaQAcEYZMBoT3cSEePA9CWA0wNhCbBeEH2jYXwneNAETAlQOd2f38/Iz19fUJ+wNCgKMiImIWWVqaEhIAPnpUMTskKNo9NjZHh57jFhaWqVe8LBFbu3rtTSKlEQYCQk8N9EBDgAMwNDAwSIBQFy7RAgqXpaYmzzc2NiXMvoDqR6AiGENLSX5+F80qKsrkfHx8thApBkHzg4CKeW5qanqFntEBEOAJ8bUXlpaWuHJgdG4YkFeBBeIIAgjglZVfnD/zkOehLYe9LxhJS/PhpqG4fDV68xHv6M3dXd0CBYWhhI4bHh5uW1paPHbPHs+NRHoDuMAL0mJUELUNxfEgwB4EQe8jANTAzR0EF82nHT582A060JxePBhNJMeOHdsE7BYWRJfyoYNNwQnGAShiK5HOCOwBOpeZmZn54ckgna2trQPAzt70BhP0Bx849xVgpfCB/kjHKwtSh8yEScAVHNySKG585coVS0DXIQYMdyKdd+3atUdYWLgU6qI7MCG10h5wgjKY3HBT0KABDmwjV0HuMEwCuDoDW4f6sWMnt9y6dXMNEUItIOCmq/ehC9v6engE6Dmun98Fx4oXz+V8jh61J2rbtm3bTo0bN64Mxglujio02cDkeHnLli2ekIbkMV456enpSocOHdwUFxdvTM/HEIuKj88x7182jhsd/U5vo4tL6JOn1wgBGMP7w2EL0LPAL71V/lW7Njaq0cB5o1twbt5FWHHZa3/Vdgzr/eMscDehVM/Odvfw7aDv2QXR0U1Gbq5uQSWPrhJeMvie+gzX9etZAFHX2FkPO+537blbt94Yb3JxC8zJDxL/yHL/XRUYruyXtwCirrGzHb6P+107MgYc13Wja2B23rVhx/2ulv99Kku+Ww6Qxx3DkMfv2aWxUU0mTo5OAY8KgkcKCZEI7/9+T52G6/q1LHA7uljP2fnA8Dvu9+y2pDudJtaW9gE5BVeHHfd7Gv43qisZ3nGth99xv2+PhofWG2/dtiMw+9GlYcf9vqb/bWr7pU+V87PzlRuamkWXLFlIyJSQkJCwTEJCpmHChHG4KTg+9iTc4p8vys//euLUqYQ0OOHhoeu0tLSTiBAk79+/loiPv6ttbLzhPNEIKSioXHDhXNrmhMS7C/MLQgnfcRGi582bWglNzSWEyckAFbQGkDqvIVUHLiAE6RAUdN1CW3vhHaIL+YiVISoqar6hoeF1oovSqBxAREkBOGAeBOPDiC64A3JKsbGxUQSYKwgzK6D+AJBCI2QyeIRnIwj4swUEBBgDqCIJLoATXu5HcoAKMwFgSRIgsXBRYehCPthoIYALAol0/hbkFJShKSIi0gigiRJ6ng/sFQuRHBFQAXRmREg2YFBJIqKKaWiokkpJyVwM/eFLVFdmWsns0NCELfEJeYvpXet79OjxjMZ3r8SW6ehEEJUF/bEKEIMNAIrBHUNIZ2AHMQI73yW6kN/W1sYPqWnmrlmzhrAeVD8itQAk41LS5ctB1s/LKsYcOrxvE5FiW7duPz5WWr7czMoIF6nz8TkPYKqWlZV5amlpE0YwoEhLFi8O3ue57ZCy8izcDkzLTVE/6nXUIzoybi0RW8LFSze2nTga79rV3SNQ+iyUEIBx+bL/ptKy/IlHD/sS5rTZtGlr4LiJ8sWWJiY+BDqzLtNZFrpzy84jqrNVcSGGgHpRBtTQJnBeC3qME4i7CtBlWwAeaU6EQgJaH2NgEpEH2pltRP0BiKiTiAML0EW4/YEYKWAABAPCylNDQwMXXYTKRnIABw1xhhc9IuQUtG3OqVOntl2+fNmIiJfqwoULNsDKIOft7e1CpDPkO/IGmpxSoDcKoOe4gC46iDiwABUWhCeH+KTMzc0Dtm7delhVFb8/Hj68P9Pb22crQHARcgqXSeOyf9im48eubuvu5uSj57j+/gHOz6vK5Q57etkS6Y2QU8AQUmZhYYGLnEI8ajDxXYIcTQehP/LwyoG8U4pAW7QJJrj19OwDY0hl3759Xr8sciou9p2Bnb1jcEFZqIQAAefUlwZA6T3g85/8LYgZn94K+dvsCYcbgmuBX3qr/Kv2aUxMm7GLs0NgXn7gN93HpTXTeHxO+V6WnjE+Z9XC2SdfFPbLBgRfiVlnqmurqCiQ9KvaYVjvv26BhIRifQfbAyHpmeG/V0b6v26Sf//JyMim9a4bna8WFH4b51TXO9qIw16nU4UnyzzUN9ZxbcnHFA8c9E43cdAzmjtX6oclL/v3LTVcA+G7aRw4rv2BkGHqmu84Ru7caTOxs7ULSEq+Jikr+9+8L+i9Lfx6nkl3b7dwS1cHk7SU7PMVOnJBvdWYyOHTF+MYZQQz7e1Xbm5+jCnu2eb9wMzNwkxljkBCfmHtuL6uZsmFGkooneRfTfj7HS0wXNXftcC9xEp9KyuP389x0Tthfv6g+mAnxtZD66JxcLDQhnKXc1Iwlckc2fQOYv6uUf/s+aioGhM3t80Bubn/5ZxCdKzhQUVrI2JSPKtrq3kYmBixUZLjej2crE3EGbDKs4FXgkSnj8nQ19PwaCzBFA7u8ExbbmG2hUOIu6qwMGtWZ9urDfu2mgvRowb9M72Gv/91LBAXmwdpbLyDf7sV9/37bgmNaXaval62YpzcjFjvQB9khqdgg9QuLC4+WFdLS5zwcvG/3X1RsU0mLg6OAfkFIf+5j5t5L093246AcOfN+y1WrOC59eQJJpeQnGtWnP3IwmuL/cKrQVe9GcfwP7K3Xbatqwgbv33HgYcqS5dEDzIzvOTjZcJMVsm7/tt6D5f/81jgQdJzgw2W238/x4Uk8OJjpHVr9+455jtFTSIWMohxt7RgYibG5sfP+HnpL18iinvZ+Xt0TXhov/G2rW6BWbmnhgAYiGw85Xb6ej//exe8j++Rk5EhlSPGDYgFCDbUYgLig9iA14lTwWIzFB9pas7dSi7rnWRp5Xz/eXcfZmBlGm1pNcfpR6Za/B42G67jcwvERhcaujh7XfslV9zo6Gjduvo6aXtb+8Nfduz79zSJ6VMtXomJjn4vJS/YwszIKNDxnqEt4e5dKTWN8VWS0gJVJEofM5lGodGoZBoGrC0kEgOJCn8wCgOkCqQO/Z7GQKWQKBgV/qaRqYzwKyoNo5AwMsjB6ySJBn9hZNrQvzCMSsYwMgOJwsBAI2OMzKQBhgHaAEYdJPczsTH3USj9pN5edkrrG97RRSV5EqWZJ0dwSJEaUJA7KfK+aWDow4snz++QEIB8QuF3Uh3KymsUdjqtd2yvw6SPHj9+g3vc2ExTK50tbzM6Ju3ZcSgx+WkZq7rWvHY7S30r7dkCX8WfoVyOrR4bTxkamfsCVQxuDK6goGA8BNhNgd1iNz2m/pKSEjlgi9gAcjuJMjkAa8ciCMbLAovIWSJHA0aKzRISEi8hXQfujgd05oJ46FGId54DZoZionIQxQ3EV30gZnoOwBxP8eRAZ2UAPFhBjNadiN0DQBNrIfuENLBbEKYXAQYNe6DHqQDGDdzUMx/rPnfupIWs7OjnWlo6aXj6oBCem7PzKSNT03NTpkzBzVWUV5InFxp808bH+xBhXPn27Qfmp04Gba+saJOm57iRkZG6AHqQBUYR3JQoSMfjx49vh+wUL5ctWxZKoDOHm9uWA2ZmxhdgDOFS8qC8W8HBwWZg5230QpR5ecVTwsOvbyIBWmN5Tc1zKQsL+5O4jqts/UpSRq5Gdhz3G2ZmNqHeDr6e69fDxs/XmvhcXIq3gpE2iNEwcEwqOtChYDQyhEapKAU2BPjJ4JXgmeC9FPBL9DfIMMA3FHBw8pAM+DAJHBk9Ds/B7+BrFF4FefgtjYEF/B8mBGo/hdbPyEgeHBgYhPyh7OS3jVxjHmWlKeSXnPu44pIy7j7W9/L2Dz7ufVJ1nCopNzSsaEvGw+w1c+fNjZSTGfUoJCzojIik1D1Hq4Wba55gkzy2771H5uKvZeThoImLCRVt2bHUlodE+owTCKGL9u7dcRgG3GUFhUmFeB0DKTrGAVLJAHLHeBJRpaDnIC3GGABYGNGTg4l0IYAMpMCZLhI5HJThDBRB1YsWLcLl0kJpKgDocWDdunUXiRxyqH/AcUGX/atXr76EqHDw6kMJxtCAgvxAaLLpwJNJTIxdWVvbKGlubnmCSGcAcFiLjhxZoa2llUJv5ff1PWUpKytZqqm5HDfpG5qgD+7de0Rn5Uo/JSUl3DQ1pZWlY64HRVju27NzM1FdMYkZxr4nA3aUlb4fm59/kzCkiHJZvW5olDY3Myds29kL/ptGiIpVrVyGj65C1DU7d+7doatrEqCkhJ9aB0A3owOuBBjvO7BvPz3esueFVZNCYyKc6AIw0FZZfrRJ7dmzl6x1VjChgUSqq8MmaC3YWrxzj7WZvr701R+1/YoK7zPYtMU5ODvX9z+Qx6K8Gg2/06HXVafNuS4/XubR6zfNAhXPK6bX/h971wGP5fr+n9feOyMjhMyS9l4K7YXSLrJ3FKFQUmlQiKbMkD0bKlHZe1VCCCnZm/d/3c5xfnXO+7x1Oicd/d/3fDrKez/3uO77eu7nua/v9f02vt2lraOtfu2ql9PsmTPv79mz8Ehxcc/0E06n0g8amO57XVkjUVCevWHZ0nkBW9conCNnuJ81Xkq7/74Fou8V7TTVt/fPzYr8JizAv9+D76+RrONWVxMFVJR3v3M5cc5ks+aE68hxq6sxyWWL9+V5eDrsXr9enCQs7fu78+1XAufUDiNDw4D8gltfUNe8zPukuPuAftrrympmGno6bOnyhZjnjZPC3Z0Yg/sFryAFWemU3TuXnywtbZc9eeLMi4O6JpslFXizoyPv7QEctfNNP28xMQHG6m/vCaXkeLVAfFKhlpGBXWBOdvSv5bhIFU9Bdn0DEzMbxsCMmDkJGGGIGyt7WYGFh3tqqanJk3ymH4uJjI5+t9PK6pD/8+fX/sI5VVfZK9XbR6DrHyDQ8QjQtvPyEl6jPn34QBTk5sY6Rt/V3r8ngqIdVo12WPQ409jSLyrATY+r8ToW46K08e9aAL0ORMXH766ubJxvbqq99/Pao+KztcyNT4Dj/mI7LjqVjY4u2tnZ2cs1PNxKTU09TKDCuIbgVGlo7jqZYDEWlsZ/18zfXhsS/dLXPxBQUBBCIYv7drP9vyxZUlIj10lHzTZHUuiL7J34+JdaJoa/YDjovzzLCQnNO0xMjAMyMhAhOoXl8b88V3h9QwCfmrKB6RlFuYrMzMOE2oZ6YZGJ8tVc7FztDfUfOHr6P4pOEOYuWrlENhk9JaHds7z8k2R6et6Gob5+Zn4R3nopWcEnMpP5R7iKq0o+zMkoqJvd2PRJkIWObXCagny+7Ay69ILSRuEB+kGeJVOFEz7vS0xM8XZzE0cKVnksFw+iZzU2Mg3Mzg+hcE6NpeH/xbbQ64mXS6JtwqOnljyijCX1TY2TOQgSjJMERLNaPr7he9NYJSkzdwamv2/X4mlytE9rXn2UuxWUapV8L20PCz0VRs9EwJavW+ZndlAVkZUPn3X083ia9WZtVyvGz4gxYBJSok3rdqw6VFSRu/BNW8syDxtNuc8PHhHLo56+XXB62t2fmmTQ0kIUeV0+KEZDhP8YQa2gsxdCKr1UAnxMHybL0JMkUB+3aX3RkS07D1mY+ecX+01kZibgKqH/G+sMhSC+dtIMZaihzNDX2vtzaiGp8l8r8y3piGPZn6+NmcyOy+RqG386u6R4l6X9PhNufs5yR4vrt4UmCL/fq7/GGRvE6EydT8UdMtXdtmox14Nov8R9zj6JZ72veCjLiGNFt2+l2D/MylC2MDM6zNDf2Rt/N+qmhMzycK19U5w+lGOie3RORm7drXrt7acmuXednVN8nDRmfj6PcXEF24xMTgQ/TgkVFxUl4BIOfG183zIf5OpwdA4/f8rpmjkBA68ldmO0ANVloGPAFixVqI6MPi7252vRKyzB09PTAJKgpwAowBSvcmNjC1/FqXKlB3TwY1noWnNzo4tIikFPz5hkgjcEslk1NDZHQozRcelSZZIJ3k+zniofOXTEKS0yTY3ARWgj1ScfnzB7N5dY04GhAe6SiiBcx/W66mFbUvRa1tPDYyfe2EyNDLwVFOUgCfqvcWx0TUdHB++GDRvugeTF4eXLlyeTqufx48fLQDLkxIMHD9bDwviI19aTJ08WQxK0K5RbC+VIasiABIkRxPSmgSSMDl49IJviD3bOB1AAyeT/9vZ2HojxxoMsyhFI3H6EVw8qB/HpeJBXsV21atVDUuUgkV4ZwBxnQPtHFT+R/tqhsrLyqRcuuOETFpiaXpOUlSzU1TXyGG0Hxci9z2XYvqyuWnnq7DbNDx3tdNq7XB/PnD4zx8Jqs2FDc6OEmc3NlMOWxpoLZKif3094tN/1durxusbmN8GXHa3aOj8xPC98oyonLf9y1mSRxAtuF/yePC+UY2fjwZho6F+dczttwCKIvbqbnGr9srFpvu9x9VmjjuvlFXj4zJnrZlRUovzZ2ddxT5UvewU7V7yskr100XYLnh31jE5GKMhMLTY0XOeAcyPmW7RoW/Lp0y5HFyyY/BemGReXFC972/P67GzsXWGRV/fx8jI2+1yOcXzX9FI8IspK+PM609MfTrKzt35IKCsrUwBgAC/exKGLUlJSVISExJqkpMTyyd05Hj9IWiY4ibdJUpI0ogXtJHFxYRrLl89OZWYWJblLItqRpy9eLNXYtP0WXluFhXXzbl1PM4+JjlXPLw4QYGEhkDwkKyjIVmpp6eBdtmxZEl5dMLYFIPr1XlZW9hWO0ekAzbQThMoe4QljIdGvhw8fLgInCCcHwEC0I9DeEqCuicBDTr18+VIRzQdQs+AijAA0swaQU03AFEESyYXgn8DGoQlUKY+BbgdX5QGVA8DHNqDtScUTB0N0O6CNtBRQWoiWB6WY/OUDII1Zb9++5V25Ep/+6MnDh4sFOTjeScyYMXLCjz7oUfny+Uyr5o/vlzmeXLulra2X7ZDV9Vhp+SlPdffPPdb4oVfG/kTU451bd2jMEG3Lyiso2ecVle+wcPHyS5pq073eVZXL3X9RqSIlO/3jygUTL73MbZ7/quqtQkZm1qyHiUlq8xctzJq7fNmT4tevZtJO4Jxw3lpFcdRxSwuq5l67EWN4O+DFziXKq3K52HuG6On7qPt6ewGzRwWPWFQD/YN9PSVlxUvr6xtpVFXWJwwMYzQ0AAoCRCBhcBCBiKiHqakJA8nJ99QmTODrBkDII8Ab0UIbdIODg1RUVDSAAhwe6unpoQW6mflz584rB8qhOjjlpR8aGoAnNPrB4WHmwcLCNzPzsyrY6Ohph1evV8o3MTGxepxcYJBXkK4cHm3J8bnB0eaXmhp2YNw+KseGNmqZWVkEFpYG/vBHZXI3K8p3328B5Li+XnmWlZVvlpw+t0Wjrx3jOnTM76qcrEKmno6SW2lhg7SZTUDqISsrdSV57Nnj+IQ9t+4WuVxyPywtJoZVxUTlWac8L5+3dPnKFHkBnkdtHZ+kOSdwvv3U0j4QHhhulV9UMU9cTr6tqbNDXFBcqtL9mPK0zx+VIyLy1PfsOhm6YfO2pxN4etuHCZ2Ewb7+IQYGWuJA7wCRjo4wBM461D80MERLywpOOERFBYBdGhpwxwGE/AMoIERYenv7Buno6MCRAQ9IJNBg1EQacGwqamoawPsOE4eGBgfp6ej7B/oGIS4zRM3IyETT29VLoKajwYaHGQYzXuQt+dDUz7Vp0+qng1gj1d69B2wSop7qFuRnrA6JtOIiZeFx67hIkd7E2NA/MzeIcjj1/b7zU69EjnvpwhOzpqb380+4qmu1vW3jcfRO8JGaPDlTT3v2uddF9VOOukQ+26evv0V1MXVyUlLm+qte965tVt/tKCnBWpv8IEH9Q9cA307NvbZ9n+p5E2KjXSYICD1SXb06rK2ujTUy4YEFLRtjf0Nry1QaRqY3Pmc15n/uuPfvl2gYGV668+y59wi2/WcZ49Spe+7JiRlazk52+2kZusHhqQd8vYItP7Y0ikdE2/zlHRf1c9w67m9KBodAyeA2xXF/1or7h+2OnCp7xBq0tn5abuuwW/3jR4zjrMftq8ITBV4Yaqx0r3v/aZKp/cWCgwe1N6quFIlG7+QBPun7zrl5nPnU14KprF2FHdi7b5eysngA6kpkaMrBGzejD794WixOQ8WBiYiKYEZWu4++b60WaOnumX3CevuCL06VEwu2HdA5FpyaGSkqPpFQ8w+H892Xnz4d7+J41NuGmYkLa29/h9Ez0GD0dCyYisqcioAwK+lfasdNAs4pfUP921l5gRTH/e4l8/MvBOdl7qruYmURY2lEZyAtLZgQNRfWyUEgfEIn4/X12GRBQaxm9EwAJVBUv+qS6OgYpOYTYm/l5cXqR9+90Xfv32N8TXXdHENUTEPsTBhRTAqr7MQwxuYGjOnPzpkQm6lpYX0u5Fn6/8gYfoZFOjqIvG8rMcG+YWyYk+W3zfRjO0YlzIu18YkQKn8px40eeVQ28CfHq/wzJoHS5vixwCPQDtq1zzKkoCgWVxz9vzqacfuoHAqHU/Z2RwLT0j0hrY+Zoh30X11h/+F+3Y8v0dA3cryTkX3np77jfo+JCIisGd4duPCY7FGl5eXlYhA37IRHkmZyjUBoSRQY3TvxyL7RtSUlJXIQekHA/i5SdRGJrZzZpfWSs3BY+tE173qIk667PdS9cf2GTWYWvugXevSC4szQFjwtkf5AKIeNi4url1wYp6ioaKa8vPxrKNNKus9EOkiEFlVUVHxJzj4ocJ6TkyMCLP0kH3/QtehxD+zICjbCBZVA0ro0xFQ7eHh46vHay8/Pl4LwxB+PmHjlQDlBGtQF3uCNH/W5uLhYAi8BHNWLYt0fPnxgEhMTq8Zr5927dzwQcuqCdlC2Cu6npqaGE0Im7XhgFgSGgfmYJSqq8IqNjfABZz6YS0tLRcnlIqMQnt/NlIOel0PtMnNCcR0X2uOCfGsWSJR/i9dpRJAAY2ufMGEC7gaC7AzzjqvwgeqGdiYBsTrZd23oD1tWVpY8AdjT7YDBQQky/TfjdQzijpHQ8ZxTp06dIGd0KBcOk5cLWfwupMohFnpYkHnAqKCrrKxMkss4MjJ8o4mJ+eXS0rfTWVlJ3yiO2Jx3P3c2yghimVSZWfgymzA2AzDYZIhpWuL1e926dZ4Q5y0BUANJFvquri4B6PMzLy8vszVr1pBMXEfSK6AqcBkcSoncwoRY3lJjY2NvcuXs7e3N4EapFBYWhgtmAJUCJGXex6sTAAAgAElEQVSRB+oJR0iNC8X6wBlzQGHgAAAxyCkZsEtKSuacPXtWe9OmTY9J1RUXF6dsYGDgDQ6FYqAkb7agrGBfXV2tEB4erkFmDflD3DkTACiXyK0hiBffnjdv3gsAfZCcDxQLRzImAFTRhfkgKdcBfV5jZGTiVVVVORkP8QbqFm4gLGAqJjqHBhwX91HZ0dH5eGFhvtLdu3fX4/Ub5iMBxpaLfAlv3cNNPf/ixYu7QDkijVQZALgs3r179y2Qn5Ekh8BDfgq2CSKgSYaKWMndLZCx4Ii6C3Ymkkim0Y7AguSHBdUNDbfjDfL33fsdHgAB7iisNQ01QqITRUlSfPy+KwlcupR34MzpU875BaFkD6e+Bv1DwHU8YMHoGH5/SkC7F8mdG+3ssOMIkLPh7/2mggXOCzc33Kwq1B8AMzDCE9AnMrvXJLjDIzvjPgGhOYMduYncIkD1w+4lDE8TaD5IwjURnA92AiFyOw56aqOlpaVnYWFpwusz2ingO/TUNkzOcaEcPd7aGL0ObiKyCMiAt87QrgxrUZDc7gUpq3zBtxIPuLrdPPmVHZe5srOSWYJV4j1ev2FDEuHk5ERPE7ioubq6OiAtESIbcoIy3FAGt47f1xArAF7Exu07buSd+u1H7I8GPXt+c9y9n5BbuJTvxs4Cjx5UaGpr24WQ23HHrjd/r6Vx67goH9fQwCigvCIEV/Tr75mCUvr/mwWSE4o0DQycKI47lhOPwkGWFqb+LzIoAIyxtPuv1FZiXKG6kZFzKGXHHcNZRdQ1ZqaH/MmdKo9hdyhNjUMLxEYVbDUzOxE2LnmVx6G9R7p8717bTh1tXf/snGCKIv14ncSf3O+E2IKtxsYUxx3TaUBYZVNz89vFJZTsoDE1/C/UWGxULuy4p8Ioj8pjOKnocMrC3BLoWX88A8YYDovS1BhaICm+bIuhoUP4uHRcBPKur6/nJBdjAoYMEYjhtkOsiiRyaNTWgFYRkJGRaYN4Fkj2kP48f/5cFALs1XjfozgmoIskAWVCkmsHXdfQ0CN648bzg1d9r9qUPAEGDJAgIVMfHTlUFGJhgGsRcgpXWhNJjEyfPh2hi0gmkqO2AeiBEFG46BpUBsWUAfUycfbs2eSS25kgCM8McVrcGC0k2kvAXHRC3BQ3HpyXlycJQX+EUBsg5wuo3wBoqMUbP+ozzJnY/Pnz/0iA/3N9CF0EyChmQM3hjgvWEDvEVVGsc5Bcf74FYfX7fFSSwQLQw1qUIIecqq7uEoi8m3Dw8qXQ4+QcF+EcIBGeFeLGuKgohBhESDZyMVhAV4mDWsQbcmMHvAA/9JkscyqKcwNKT5bg4uJiB4tpemRkJC41h5aWVjhiW3BwcMDVT0Ed2rlz5x0ADmScPHnyPKkOokYBfFAIOjIHgC2BJIIkPj5iraGhxSUIoKOkZ5JADgdH94vnTscbc3CwUeUXhOG+4wJKZy9A/3gBbfIXXaTR/gEtjTdQ0pSampqSRPQgAAJMWgUgdczWrl37F9oRVA9CRMH17rA4Z5MDD8TExCxB5QDQgBBWJIEI0GcTWHTTQ0JC9uFN8u9InXxA6tiSKoMQagsWLMgGOqJ9ampqJO38+42EHqCsuUCTsw8QZJmk6kpISFhubm7uCcCZOXjzYWNjYwvMHVMBXbQNr8/btm27BosyB5Bh3uQWLyC4rgMjR/aRI0dIloN1wbF06dIcHx8fQ0CFkWQ2QcgpQ0Ojy9XVVbJ4SDY3N58ztodPWwgLz6Amdzjl4uIK/pHxNf+IlJKSKgQ5l2M4654NblrZgL7bjzcfgJyaA+i7GwAukSNnH1hDakA1FI4EfdigMDMgnnB3LYT6gLspwo/iIqJ+2wkbJgANDELH4OJRYdHywSDIIWzoAF0kDg6Oi+tExOY3bjw5cPPGbcenade/hpwCMSN8tA7C4n5tV/odXYSQOiR3ZYScAhsi1BhZ0jooRwd3Z25yOGR0c4PxM8L4cZ9uYPFCU6I90B9cOwK6RhAWU8PXkEqA0poI0FFUDm9s9FBGEG5eaFcmuXsjrDIIldGRe2qD77kAw94HdZCETY4u1s7OTv6BgYFeck93cIOUgjWE5oPkkx2yM+CrhQFfjYsJR8ip24CcOvcbcgoX8oieyGB8zOTw97/bGs0HSR4xNDa0K8PTaDU5p0Q3JXLz/vvNlgHqkhi3AIwooGc1NTELzM2j8CqTWwyU7/AtkJxYus1A/1gwJRw0hqsEnSqbWVjczs4JGHe6L2NoJkpTZCxwL7F4u74+hRB9TBcJ4pwyMjHwz80L/sJx0aNNUVG9Yu8gNR0jLdUAmzBv4yQOwsihQGsrUby1vpm9s4uKZpCOip6Rka5DSoq55GsHJmM6MEpjY2aBxPiC7UaGJyhKBmNmcWgoOrp2p6WllX9m5v8cF+WypsQWbDpgZH27vmUQE5eSwtS3qD5ztt2wBPiM+Lzdb1589vz18jevm+AUtAlbsnwOdsxFf+UsJZ4HY9l3Slv/DQskwo5rRNlxx3Yy0I6rb6jrD2l9IwcLKIxU9Pilqrf/veMbNHSvcfPStj/Pbdj84cOr4ZnTJJOniAu88DjrHkzPKt6yfu26c7RDGIuTk+NFI7vd5utUxW+Pbe8prf0XLPDL7rjoxNnW6q5Ha/sAJzU1LZzO0lP39vQTGeCvhsYbHaQVCCQJucdiUmJj+3YYG+gGZOXe/E2RvrWVM+BW6uGTvqmHJacuKudmpu5q/9Qo0k8Y6FdVWZyzeYms20k3d2/xGUvzLXSn6WLdGJvhPuf0RVtWeSkvn+MDdZBUWx+LsVDa+DkWQNpBBrrj9HDqRU7ZjLp3VRO3rlsd+2fzNTcTJ86ZrltfU9cO1HODGD09A0YcZMP6hzowE9PtdyWleAoI1L2gqwP4BRAsoqYG9mfCEHF4kAA/qf4SXqChGhr53eAw9chpNoGIZDuBZhpeMoFiGkMynhhGA0AFasLwIPo7gBaGiAROTubhto7WoZ4RsmomuISTKi+vZXpibMSmkgpvflAyaCI2dEwIi811sHG/bzRzsWoxN+HDp5yMxwsGmekHQMLCfIa0YJGX7xVvAbl5zyz3TTPEOjAOG2OHZ93MDM1rNNd7qCxRuENq+aA4bpCfn67a+vXxAEIhCbBAIQyI5a7cvn07WaFvCPMIpKenL4e4eBBe+AXAJzIQVuOHmDGudAgwbmyCsFsjBPS/kI0c7T8KT925c2cvxEMTySXto/J+fn6aEMNNwiNJQKHAtLQ0VU1NzQA8AEpmZuZ8SKbnBbWHKDwXTExMXApEA41fo2+BsS2AsBI5ZQkmYFDZBcobD/j4+EiGe1pbW8WioxPUdu/efg0PfJOWVrAoPCT5UGxc1npyp8oAnJhX8bpCQH2zegTe2EDFYhMaG5n5oIa4PNDIKt/DI1toamrig7WxDBgyQsjdxgCgMikpKUmV4HnNz6D53TuZ4w42xn++AMVLZ03Xq2Ni4v3AwNLWhlHRiNBRiQxmZGQwKs3kG2RhJdIMD5AFwnz1VvpbPAqwCACoGfFqIh2G3Pk3tx8GKV4CsL0PYv0D3RgLKysR+jDc+ol2aKCHn663+yOW88KFn4UPHLeyhT3qaa6uT2L16dNnDyhMFcZenTjlfyM1q3BWdMTZ5cPvMW7n857B3DJznlrtmakPlXM67XNMTSzN4d6pf+CW0b6NJGlgwAm416qtDTt0+IjLsmWLSL4LA/poIdCJWIIm0HZy6CoAuiwA3aTD8fHxqBzJeOaVK1f2QaxbDnR/DuEZD0AM14GRonjv3r0XSJVBjBSwACKBksYeHIUcAIMO0b9YWVk5An0PyacnkB9ZdvToUUcY2yboM0l2hmvXrpmCg0sDAAHZleTH2tr6DIBzQF/HkOxrCdDguEhISJTq6emNcCX/+QPzMQEc4A7Y5wQgvlJIlUlNTVlx6tQF+4SEmM14sdXbtyOtXU/6WPX1sfKQc9ybN/2s3tS8lnY+7nwAb2xgH1+IK5ceOEBaWwshy+CmFgCAmROAmntGqh7wqXmwhmwfPXq0jVysOzU1dQmApk6RjeMix52huL/u4iUv7Y0bGW5Ag1R1dZjcqpU2BfaOe3dpaUqTNO5XvfVfKBAdQdyhr6sXUF99ZSIB1PoQcCEh8PE+U7cwb0fX08Zqs1likh4935GdU7RCUVH+xcp502POXvDwnTh1yXPLPXMNsQaM67SDY5H4qgXuS5Yo3+QD5/8XukWpYhxZIDGueJuRkWPwuMQqk7MzoEv4lRQPNriePKu/SYPdB8oSGhqwKUozdpVev+mwY42qVNDPmqc4SOsz0dVH+bh/IKc6XnfwBj6uOHgjOMy5FZixBfh5sPlz5yXZHdm0f7ALY3Y9fz58isKctD1aC0yxTozb3sy2dprqMsfpqvOuSbCy4nIK/awxUtr9sRZ4kFykqavrFPLLATAQw/o0+e1NMvLT6sUk2er6e/tpuzrosPsP7ildv3102zqV2STfC3+suX+rPTLm3S5Lc+PbGS9uf8GrTOwgTrgR/XwHgZaLBdSXPinKSOROnUp4jmBwBZnly5g4+UF1kDMfQR2z07NXck8UrRQT40HUq1/Vth2LcVHaGDsLjFLX/HKOi8AMdjZ3LnZ3Dwj09Lcw0DLQUQ/1M/Zg1H0DxgYbHGRk+HEzeH60+REDhrm5hX9GBiWR/kfb+let/35SiYae3vE7v5zj/pcnLDqiaYepuVnA49KgiaI/WJH+v2wHSt++3wIpoNano0Nx3O+34Hdc+SChc4e+oUFAfjElkf47zEe5BCxwL7FEXV//OIUsbixXQ2jwOy1bG6tAcor0Y9kfSlvjzwJJ8UUahoZOd8blqfKjRw/WlpaWTTY0NHbHM72390VLAQHRNyAPEUlueiAGaQy5nVUQG4wjVQ6xbTg7O7ps27bhppTU9HxSZSDXcEZAUJDeCScnQ7zgeVJS1m6Pi3FHK8pLpQpLQnEV6Z/EhW2uePdO9OBBU5KJ/ah9bx8fc1ExkUq1VWoxOH1mh0RxNx0dHV+InWaRKgNJ5lNv3bq1FyRabMnFcZEiAkiL6EAs9yherA6AHKsBgCEJSdW48wFJ5EchH/c1xAbxQCNMkJDvBgn3nuRYIFAIDWLC5wA44o1XDnJNpwUHBxtBny2gzyTRZZC4rg7AAHHo82m89QFyKKYAmKgA4gKSye+j18HY9MHOryBWSzJmjtYQxE3PovkAcAnJNVRdXTLd1zdQBwgdrPDsnJiYsf2K9+2jxYXv5cg5LgBHtlfVVEka6Bk44Y0N+nwMYtSvILGfZJQFxdVBfsQZgDfXgLiggFQ9yM4A0jhgYmLiQC4XGQAhMwCAYkVAbAGVVVXipsbGuJouPj4eJoIiktVr1Ugv7tGOeHpeNBARmVwNSJwEHCdgOnzY2mn7dq0AoIIhafSi8qKZ/rf9950+edoML3E7MjJ9l6dn4tGqyrIphcXhuI6bEBu+rrq2XsTAwNQTz+gX3M8YTpaWfrNeZX0iTp/ZgAHCVUtf++bsKfIkHRcAGAqhoaE7QDPJjlymEXJc5OAAHkDl+ki1B/OhAonrEqDXg9tnYFKwgYVSCTfIUJw+04IW0lkAaHiD8FcF3tgRKgyYJs7BgrqCVw6NDRaUPoA5DuElroM201bosxgsurN4bXl6ehpAn8vIIcLQte7u7gfh5l+Kp7GDbja2trZu6urq15SUlEg6AdD2KN665X/g4sVzyHFJ0g0lxj3adu6Cn01VZddUco4bHR237W1dzWRjQ8OT+Bubtz0QDbyG+QjGmQ9WuPk7g7bWTbw+Ax3PNH9//33AWuIAfcYlrAASgZlwozg0bhPpY2MbtYyNzAKzsimnyuPvIfW/0ePRw6lx+aj83zDh3+9FfFKnlr7OAWDACKEo0v9981GuAAs8AAkSPX2QIMkLHXdkDON2x40IebfjsN2RgOcv/CiOOw7dEGWe+VwKcuGaNKVEff2MK3hJFz9yaA/iKrYZmxwLTs/+kozhR7b5b9U9bh03Pr5Fy0DfIDAnN5jiuP/WahjDehDw/qjFxRgx2YX52tozzb9G2PcjupYcW6RpbHIi5HlaiAi3IAGXWvZHtP1P6xzHjtuspXvQIPBr+rj/1ECU63+MBVprWjkvXgiIGiAIMyktXBTxtruRkYFt8L3WeoUgdmBLfPeGOOnjy5Y58ipcEejAr/d9r8TrN3XCcnMmowOp1ty0t9PfN3QrNDUP8Q7TMw1PkhQuXL6Y5mlnJ8Za//qd5HtGVmyxNFv6aO+L3hInN9U2T18xfwKqb4QaF+Xj6unbBWdn3cVlefwxo//ntY5jx23ZbmpiGvR8BKtMwCWr/ucmotTwIyxAbCGy2zu4R+WUdyiwcgn0VLwtERKV4MMO6u/ZP1uKP7n8abvy9Wu+fpZeh2TlJ2E1cQGpOgWFhWtX7ll7Q1xM9EnQpWTnpym5KnUtvYJD1LRExRnyDQY6GzUIrW8I95482FNNxalia68+XQhSEZubuyYGR+XtyC3IPXPzkjH3aKrfnZis7UcsXILSMiJEBIFF5UeM81vqRHnv79+3C7d1dxO52dixlpaPBGZmJioWluEWcfEJJKMC49ZxQ4PrNW2OHg4pLPLHDQd9i9EoZX6OBdA77n5Ny9RuDuFp6uqawVvmCZw21HN4wjNNIWXxvBV3hprouP1ue3k6+VnP5GLHXucGFJlkvches3LfqrCuYQaR+NDnKpMlp8YcPCji+uYjprRjg+V9WwsDvYXLJifev/9ki41H9PnAW+dnzJMk5EYEv9j/OOfVRsU5CmX7tk5DsfaRhJL7T0o09u21vpNZGic6kZFQ83MsgWGOzkFnXE9etRoapIH8uz4gmCBijPQcmKrq0pchdy2n/LlfiCiBcP369d0AepB3c3Ozxuu4mZmZC5A5F+vq6pJN44Ny9hBgLtbX1ycJ1IAGqSFhOwTimCchoZhkHBcxDkBity1k+avjxeC8fO/auJ28awFZ9jxFxQG4jgvxrj1lZSWyFy96HMYbG8RoHYG5oGLfvn0kxwZ9ZgegQzAkgp8CUMBTUvVArFPJzs7uCATrd+HFZ9F1kJQ+A+KmRyBZeg9eTNTDw2M7xEQVYD5IqhSgeiCO6QEsEcUQ6/Ul1R/oM83ixYvDIK7sANIhuIkgKI67fv36UIj5Hod5KSZVF1K5gOR2u8ePH6MEb5KE6AC82QkyNlOcnZ3tv3XxI8fdpWH6nHva3Il6Otu1pRmwwoTQmFuud2NFZi9UzVdRVE7zu3XF1cnXcpE4J01Z3K3SQ3UVb1WE5vC/OH7+4taPddQTeHgnYgxc/dicOdM/bFPfpj1TFkOkAe1xyfl7NfVdfV1OXbi4TlEgMPVh+pbst9XzT7vu0GD5nUT+hn+I7rFjl21pqcRE7mfenjSZi0CS3cT7+p1jALCRcz97TANvbEamDuEy0nKlhvqaDqTKIIaUdZv2xp09dfrYzJmT/6KGYXc80ePkcS9jPh4h4k1/d30+DtqGm9eTj9Y2vpwQFWci/nmdwDYi7OBgf48AjiINRucHaYTHeB2DhbYQmNwbgXEAVz8GXQvZ+UqA6Gkkp7MCkhYbZ82a9RAoPEiicIDNnf9FVtby7RoauDeJrKz6BcEB6Zah4WGbKtIBOYWjHQRMEpNev349AWhOcLmxUlJSZoAGz3tyej4Arti1YsWKR9zc3HWkbIT0bp49e7YQkEq41C3oOjQ2AAfMB3ABLg0KBNglQRWBF2RR/ng/+3ObYMNVQF3ThBfMR+XDw8M3LlmyBNfOo3UGBgaqL1y48AGAIz6RGhvSznny5MkqGNtdvPWBdHHev3/PDTc2kgAVnJsL2z71Qxm8Ssu5D1ms3jMBwypT4xJu+qUVzJSUnB02TUCm8nbAVQc7T93lcvz85SEXX5zKyS1ZsNZwQ2TxqxJhRmzCu08f25lqq9/MeJT+fJbUlFn5mzer3Fm9nO9OU1MXm3fI/cMdnwbVVs2Ycb6to2liQ1+LwDHzNRtH+1JU9G6mr2+Cjd+NZ5s3b93+AqNpoKJnGCQy0dH298KLMgbsSnT09L2ZmdkLQcuJQW3V+vtUtNR0ROIwzeBADxAsod0RGx4YJvSnpz5bxMbG0iUnp5DHyclO19fXQ+ju7iUwMTFR9/cPEkGZgTY6OnKmEmhLSYhPrmJmYqTr6e3H+oeH+uEe2/v6Vd3cR4+L2JnoGIibt8wtsbHbbxUTUWiYlZ2yJCLanO1z+yF5mZiYCJ1x+6gcF9eyzdTEJPhFhj/lHfdbt7n/UDliM5FVR986jXPyPKnd+zednsKPJV27FhDbQs/aICk6LZCji5rF57qHnevNU6t42Ggagt2femY+eyFzwEn7GCMPU03n224uXnbOhr4ejOO6f9zJ58WvpeYtlK3ZvE5Rd/kc3gcVFf3yVlauBSIiUhmiksL5CvMkUlXn8H+xGYSGVmrp6ZwNVFm9PpubawAI0VqHiQN9QzS0NBgDHR2xratrkJ6Bpq+/H7yVhokWPJV2aKiXmoGGioqGmh7r7u4n0tBQDwwBtxItFTU8fxOpiQODdARaOgKQpVHBEy3wow1hUF9Pd3dPHxMTC1V/dy8dRkOgpYU2BocIfUMYVV9mdsXcjg/U7MuWL81mZGnl3bFztX5U+HOTqteF84Pu6n3huKNTOG4dNxYkSMwsDgVmZPpTwkH/IYf81q4gDmwTDbuHbb38s1dv3vGMQ5A972rQ1d3Lls16MkNB+mpvVa34eTcPtx3mR1xZeQRb0qOSD9XUlmHadjutOnvb+R5HPNeVElJIXThdMaINnDfocdZ5Vt7hzBUqky4qyws8am8n8pjscXhR0UGcvH7n1stH9kyzhkf9LzStYuNfahkZugSm5N7EfVT+1vH8k3LHXe5fena/StPBWUebiR6j7e3Fhv1vpRz90FwtEBZzQJBU3ePXcaObd5iamQVkZAZQdtx/smp+0rVoxz127Gx0WWmrbHM3DfFpaRH/rIVKmJurpeZCRabQ9/n9031uXL9+OeT+dCYOXkyImwWbO1cmff2utccXTudNDQnJMvG7EmrzLLWQa4iKDhOZNgVzOWu3e9MKzj+YNhODS/YGPHl+c/maVc4H1on85f0zPqlMy9DgaGBK2l1R8Yk/73DKyeXO6RPHr1vDvo4xMQ9ggwPDGLGfGVu/QaUm5K6h6K/luCBsbWJsGkBRpP9JnvcvNEv8SBSqa+1jHKSip25vb+dg42brFRXEXqKDO3TA1tPSw/+6vke4GxybT4itFx5WO3h5sXp0aAkhFNbW7n7hrk9dXKgrA4zD/TOluJGczAh7JtrRD1v6AsBjevmcRbN8lKYQ/pKQEBufoWVi4hyY/jRWdOJPdNwmUA58W/ZxEpGRljjY3kigY2ci0A2hcBAzhIMYfq1w0KMHPTu0du4IeF15lxIO+hec6FepAjn8w4Qny2Lu5Rx/19Q631BfZ9vSxcJ3SWVtxUNqn4mhc1BWdiwFqzxWCwBxTlmYW/tT4rhjZfHx0Q5y3Oy0N0t9Qu5YK8grNK9TUbYVF2ckGaNNTMzdbmzgFJSZE0lx3LGa3oSElh2GBkaUR+WxMvgv2M6DOIA8GtkHZ+aGUxx3rOY3MrJ+u4W5VVBRcaAASJA0jlW7lHZ+HQs8SnitqW1gMz55la9evXqwuLhI2t3dwwJvSgA15AZ0IuWAnLpGbtoAgeMiJSWFKx+BrgWkzl0ADx3HQ/QgmQ47oHZJio/f8ufj+9G2Pb3Dj152T7Do7e3levQ4cKIoDgDjxo0bKqVFRdxuFy7ggjkAOWUkpyRXpb1L+y+IltH2gNHjNlC3uODp3jx9+lQcUEq6wF6Bi9BCdQGQQRiYJPZDOUc8O8J8rAakzpRz586RlBdB1wGSyRXNByDUbpGqByGiAO3l5+DgcALAFbgMGOhaYG3wRPMLYI0qUnUBKkwakFpHk5OTd+Ol3l3y8tF6W1M95ezpU8fwxmVubWolKin+0lTHNJrcGjpqbT1TSk6cds8ePZK6SOja1atX3nByOnUGbz4AMMG8a9euq/fv39fCayvQL+7wcYcL5sMELj5y9Ky+vt4aJWXlSu4X3ElK1KD6QTrkAsxHBVD3XMFrD0BA/oCGOwYovRGt5j9/0Bo6f9rtSGRc9EFy9gEdp2Wuri4ehIKCbKXGxnd8KjjULaiS5OTHanx8zI2KirPyyFb6+PEyVhqad9PILBYQo9oIFB4PYBEAPOWvn48fPwrDIkHCWH54baXnvlkc5JtmkZyUvKGgBB/ymJvbMKHj3UueJWuXlOHVFffkiYyssDCc3onjSpAgFNKWLVuS8W4kyFEAXbUQhLFSydkHwfwiIiIUoC5cVFRBQYEYCEBxk0N7IfsA5LGJHJ8UcFutBbTTI3I6NKivgJxSBlu/wJsPdDoLdS2HOSPJyYXqyCnKkWlrbuMih/a6fz9huogIx/spU+bXk7MRoPQk+PhYu2RlZzbglQMOrBVz585NB84pkrQ0aD5gzpYBvc1DvDpelr5d7OlxxywuKXMTOcd9UVAg1N/WNhEgpJl4dYHo1yrgiSKLZAM7rwY7ozWES7wPa2gJ2PkJOfuAcJwYCMNtHrdx3PjYZi1jQ5PAzNwgCgCD3ExTvsO1QGJ8LijSnwqiEKKP4SK5F4eErY38M3MDvzuXsqmpdTIvL/vbn5HEPYamojSFY4FxrY87Xmc1MrJpl5mZ0e287+QLKiysEXc74165z1hv3bI5UiTpZMerbSj9/jYL/LLaQd82/J9TKjoOtINMTPzT0sK+G/VSVdUuLSrK+gZ23P6fMwpKqz/TAo8eVGhqa9uNz1Pln2m4f9J2dHQtiH6Z+5eUhIkyQhI04tutLqyenvi4eM8QFXt7VX2lmKAQT5vYROGy2toK5traj/Pk5WVylZbMCJgqxlbe2krkjLn7wHrOsnkhU8RZCnqqe8Qi4+IM82s6Zn7qJTLKSIgXLV00L0RJiXWuqSMAACAASURBVOHB6/LXCyLuPt5b29guz8MtVDN7zqxoNTUxkhy6/2RMlGvH1gK/rMwmOAOD/42KHQPDtKx9A30YExMk59PQE4d6PxKXr54V9TOB2bGAVTYw1A/IzwsbecdFyoJxQWkHT3tEXJw+e2l8d/cHru7eNlEaOtr3clOkcl6Xv5zS1989ZbPW+qOb1sr4lhb0yTs5OBccNNqtsUxZMjbzYe3qi563r7DxixAIRPoBQm8vnRA/V+oe3bUnfK7fPFvT1CxNR2BlYe5j7qJhoO3YfXjzxmk4ONKxXX6U1r7XAuNarQ+x7dXW1nJC8nvlnw2AFOnnzTCoq61vxQaGOjB6RgZsoJsOG8Z6sEtedkdnz5Z4SEdHSwXZUohtgzh6PZE4AH9nxGho0E8M64FkKlraQTjBZoS/92CsrIzw+4HPfv/blQQC7cgpdzdcz0ozUobY3Y1hbJCRODgI5bFBAu0gLeRmMWLPHtapeV52dygo9OEHAEYT2nHjgp+YnrgQd/r4ybNa8jJYlrd35Lmi0leL7W2t10jxYg1ulwNv8EtNfG6os8y+PAeTPeVy6pHy6pke0+fMeFCSWzs3LDLxnK6BpRkPD21/3uMK9aaGtxNmLp7mb2pvfvqok13AZmUZr6KH7atOnzt7XPOwjqmGqsgtxDqPZDFAQgIEEaQLyS0ipMlbXFwsoqCg8Bdbj16H5CqGhoaYeXh4cMMmKNkeiA26gIwAl2sLWE0UoD/V0D+ShAWj7UH4aQrEFtEB3Rcpb/+bSyILjE0cmE0QgJ9kKAMxPECCNzOpNTRaD/RZBMbUyc7O3kLORqgcjKsbxveBVDlE21JaWqo4ceLEKjypDhTCQn0mNx9A7yR060b0/nNugY7kTpU7Ojp4gSSAA+K0L/H6DX2Wgv52kpsPFA8HIooaMnZmglCPCIS4yr+yhthh/OKE407HnQvzC2dCfFHtzxegwclP2Vv7phbxaHUTmVkmEIZ6hLHhIZCMpmrDCDSdGBURPIs0o8k33Qip4DYwTED+DalMkHc8TIR8ZYwK6kWXD0M7VOC08AoKbVDTUmFDQwRsYJAFY6KbgrGwErDyyrO8rKyEZkSLkxr/fK9n4ItrFy6bi0zkwt5bW1+8U1j1Xi4pzEW+vh5j8Tp3KVJIXuaF/n7lo+C40qdcj8clpkawb9+hkTxn5oqnR6ycL7V1ErApEgqYjbG5z+rNfG5Jzz5c3amtudT36vmb29WmHWkq/LQ8IDzyHJPMnAeLVOTsFGC3B5odLdCyOff8+XN5iK9+xBv4gwcPlPfv338FGC6U8GQmQMvHFiZG6e7du1vx6gEGjYcgGZIHoJBDpMp0d3cLAdVQpre3t+7q1atj8eoBm/EBY0kOgD0OQsyXpGxMfHz8BiMjo6tFRUVTgSmEJELN0dHxBNwAFGENrcVra9OmTXfl5eXzgN7mBLmFAWCXSFjghcePHycJ5oA4v5CiomKmn5+fEcSNSTKJJCXFbzl40NCjpKRoOisr63tS7Tk6nvM44XjZWERkJkbOcWFsbnlF+YpR4ZHKeP1GkjsQVy4ETSOSIA2w8wS4qb1AukgwH/dI1RMTE6MG1E9XwI4zoc/NeG3BWtsAay2EAHeUCRDwZ5eQkPgLLc1HSLuaN2tvrfZBswuLl0rHUlMzML6txISPWJ2/clBH3W3pUuEoemqMGjWCdtwBBpRN9dsfht9/jnaAQACij88+n+/Qo9/1flbm8+/RZajM6J9h8PWUpLY1vlfP2haUnuADx32P7sQp0Sl7ve5k33A+ZT1RZhLW7OEWcLqosU3hqpuhKlTBcuzwhThBhakvDu5cYVue0y9zxuXk/cXr5nusWr/Yn4mKsaOqqm1mU1PvXB9v/4NN1fVCAkJCjZKzp756mvVwsYuTpdcSpQlOTaVNKwLD4s8RReTTlm6cbTkTuIrQUwssbDHYuXK+crdkgJ1QWFZW9hUZZ+IGyh1muMOT5EBC1wEFjjTacYFKhyQzIbJFfn7+NHDKanICUqguCOZPBQqcKrydGVGlwE4gClpPRaO0pn/uO9DbTAQUGxNo/uBSG8G4RQUFBTvxdtLROuGmJg7j6oKbBElADEoiAFtPg6cW1GeSuzd6aqmsfCs+Y8bUPDy0F4xLJNg/Xfv8hdv25CRI0E0Q6I9YYG5xd0KYryloxyX3lATaQLJgQ/QEBDvdXz/oKQFojURgLkq/soY4oK7JZAEYiDZy9vRd9Zcu+eiu2ch0FVX44QMmpaigV37lqtPOdev4Ask18iO/i47uAOoas+DikmsjWGWElkmLy955IfCJ32VfywkCrNgnL487J159xKZddNq2GhnG3vx8/MRpis/19y63eZuHydgdc8zaY7RnxzQl0czc3LfzG5sbNqiunXM8O71mWdajIsvKugYeJn5emtT0RxwnT1r6bFop7F744P0aDx+vs0v2bTu1fLX0OUT/+SPHSan7x1ngl9UO6oQE31lKextVVq1Plpk2MYeKhgrr+ETDdua0s9HNWw5aampKP+1kNT4eRL9MLAMzXvzGgIEelVMSMjUuXE0ICvQ7zg3vxR03PSOdSxt75rmd2LEEJV5fPu0exy8zNU1v/zIHcNwpR53tinQtzLdOnMgNG8/z9ffuJTnNnD//NjWBtav29YdpXR39/CKSYvlZ2S/UJSVEaziYGUuw3kHu6ro30poHNbXmTOPMoIA3fpxj/eiaY6MyNc3Mzv564SAUMtmmYVHS3jYggNEMYEPD8GcAiLToCdhJF6sVS5ZIpPxo4+LVHxNTv11X1yCosDDqD+qanIcFy6PTChyMDXat4+HBesOC7u1r6qSRNtZdYQGOzXTNM9SVRZC/YNvGxTerqjDhW9cu+a3btOXorFmC6R8/dguH+d05EpacbtDWNYQxs3BhaitW3D2srab9JL105c3gu8fKKqvkJGUVMK1dm/RXLxW9Sg53+rPsQmn32y3wy+64yAToEfR3U/xxaoz33vDtJvvnJRPjG7ebW1oHPX3q969yTn02XvRSPSJVMfoZ/Q7vXe+fj4pSw1haICm+BBTpj49PRfqxNNS/2VZ8ZON2Q2PToKy8kH/Vcf/NPlLq+m9bYDSOS9HHHcN5Sk7s2KavezC4qCyIwjk1hnb/lZqKiytUNzVyDgXHFQYQD0my+//qeFEwWx6Y+AWAhf4+XichR1KVg0Owcfp0KZKyIaPXQYxJFQLIDRCs/wuj3mgZyO3cDKoAD7m4uNpItQfBfD7Ib1y2YcOGELz+FBQ0zr169aFFTHSMemlZyAgA43sNDMnWCiIizC1fyxMlVz8Kh0CMdun27dvJSrSgYD7k0i6CfNxIvMdtCHXINDQ08EI+Lm5eJvR5DcQFIbd1Cq5yANhZHZLpH30t/BISclt99eqNuOVQnx88SFi6aZNmKP58FCjBGpoAahjJeGXAPosgXNIEMVhcIAO6FpQlFvBz8r+XnU46ZDaS+xwco6WssvAJXjjsw4cPgskPkpfu2LYDN+rx7FnF7KCgxEPx8enq2dn4jgukBmIAUBJcuXIlkjch+Xn0KEmVi0vgPcTWc/HKQH7wOph3lB9NMg8dwmCcWVkvQA1DEzfujupG+erx8fdWEIAlQhfJkFy8eNEcr1FLS8uLEOctA8YFH3ILGJgZ3AUEBEqhPMly6ORXVVU1HILwjnjaQaCvMxd0eI7C4txEipkPte/pGWZ9/ly0JTU1NW9O7q2ROO73Oi702QwS0stBOyjpe+sAPZf5wOpxGG44mtBnksndqG4oN8vGxsYeFrEW3gR6eXntASSOLIAicNk0gLHCGyRDyg0NDd1J9RkhueDmGASsHMdB7gWX/ACV27BW7c6Ro5b28+evJFkOpFVmOzjY2t+//whpB41Qn/75A302rKx8JQmkHWZ4NjS3ND85RXJKmZ6eXgA5OxsZmJyYO31u+U4dLZLloM9sK1asDjt7wfXEjGnTSGo5pT1+vOjU+bO2cdFxG/ASSG7cirZ2OeF7ZGiIiZOc49686aVVWFQ29cL5S7gMGMD84g6Al5cAjPDEmQ862Bj9YD4c8Vg7YG0oOjgctU9MvIc0s744W/m8zidP0he7nXV1HbeJ9GFhdermZuahZeWh/8hxv9dZKdeNfwvEx5drGBnZ3yHnuP/FUaKnjnHruLFRrVstDpmE5eX7/aNH5f/ixFD6NDYWuH//lYaejt2drNwQCsvj2Jgcw+LiPqrr6eqFlleEUlgex8rov1g7CcDyaGxgDwCMIIrjjtXcRke/H3lULiwKoDjuWBn9F2snKQniuHpOlB13LOc1IqJB3eqQFTguRZF+LO3+K7U1Ql1jeCwkK+cuZccdq4lFjnvI8lBoyqMAXF7lseoLpZ3xaYHfHNc+JDM78rsJB3/WyMft4VR0xHt1MwuzUIpa389aOuO/3YSEfE0TI+eQjKzw8ee4iFwb4oYSBgYGvnhTAQnZOpBrWbV27doH5KYL4nnaAMCogkA8LhE1UjEA4vBbKDeRVF0oH9PT23P3Gdczx/Haik1I0/S48ODQm8rXMwsK/XHfcUExQBxySYUgERyXqBySm9dAjLoB4p4kg+co9gzJ7Y6QAO8PpOkkVQEgQC8B9exESeJ4sWc0lrq6OqFLly7thHieK97YEhIS5kKfxWE+cMEcSH0C2BbebNy4EXc+TE1N7bS1tf0gb5Vkzu5o+5aHbex0DPVvSIuIkGTTADDIhHOX3A+6ubiexOtzcnLUnPr6ZuH9+3XC8cr4+HisERWdUgOgkGJya+jGjatbRXj4apTXr8cFl1gfsTh+YJ/uVQCgkGQJQX328jqv7+x81gmvrfv3n2u4u/vZFhc2TEt/HiUiKEggaScgEpgJ+c9M5NYQzOmWSZPEQaVjzd1/cjuztXVwO3nSEQlw48ZxX9e+lrjiecWYkJiYqAILbzLIJ3jhNerp6WkAid1vADxBFqSAMvwB0fOGHIIGwBUusOCuQyCaJH1LaWWp5I3rt/edPXnqKF4yQzzoml44n2BZVlaiVPEyDNdxQdZBqqKiRFhbWw/3RnL58uVNAGaoBxYDkkz1yHGBaeIUILluAjMDSUUESFqXAoWGPS4uLsfIOS6g1Cb5+/vvOXXqFO6CAvTZInTzArkXXCUHcFxDXl7eSugT7nzADdJp9+7d1yFpn6RS3ehcHz5q46ilse0qoH5IQv5Kqqr4r3v7mJ0/44oLQIiDPle9eSNsTOZm4+vru0VISOwNyIeQVcO47H55l+hk0UrYJJ7hrccjttZuOwx3uSsIkr4pIerdi5eP6dzwvWWDV0d8fJqWm5uPTXVNl3x21l3cHTcmIWZJbUOThOEBnet4dXld8bWZLCH5RkV52Z3vdVwAQXH6+YU4u7mdNCO3hqqqCqUvXbplMW4flUNDG7Y6OTqEZWT6UrDK37ta/p9f9+ABiH5p24Y8zL0zaTIwmYwnc4xbx42Pf6+he9DwTn5BKEWCZDytuP9QXyNCCrZZHvYOzsnzppwqj9W8JCd3bNPT1Q3Oyg6kOO4PNHppaYt8ROidC3Lz52Ypzlf0EPuHkqYVFU3TIqITbHZp7TUUEvqN9qelhcie/iJdta2lczMPLdODrIIc5aTsDI2hQVqMe5Ad6+keGJBbptSgtm6l2+rF4pc+Hy56lSl48GbecXePp80d3ZiKsmreohXzbJfNnzjyGhFw846O4ISJVcvWLvrLeUBiYsU2Tc1jwZIS0o2MzB08dPT9NMAWgQ309Y8Qp9HS0mKDQB4xODiM0dGyjJCeDQ/1Qa3wCgrlBolAZkhNi9HT02NdXV0j5WloaEaYTAFHP1IH+omuG/2gv/f392N0dHQYLT0QIQ71YF3dHRgNNd1IPYi87ZTrsVVz507CTfpBdY3bHRc57t49e4KLiu9SHPcHOm7Bi8a5PtevJcktmJG9Tk1VV4SPgEst+y3dSEkpXeNz7Vawx4XT0/l+rysjo3Dew6c5hxbMXRwhwcJaWtbQMKWsvkF+eBC4kpqGOKKjoreIzpXv1DbSNJwvx/3Fe31tasvU6/7+foOc3IwYE1vVx6ZPXCLivK1HDqmuQwkGD5NzF7d/aJaeIC/fuHCa4BeKg8nJRZo7djqFmBhbXuSfOPSxf7AVowFXoqMDGuK+ISpgFaUeGBqiIlDTE7q7BzFaamoiGwsD1t3didHTMhKGgbWwp6eDyMHDRQSyPGxgoI/IwMAwYobhwUHk3sBXinyRmoBon9rb2wnsrJyEAWI/YWigDzhNgep4mAZjYWMFpsVB4vvGFpCEdTO47X9tm4qKBNn35XHruCERVdscDh8Lfvbcj+K43+Ixf6MMsa5bKLm4fHlDUyf7UOuA2MOnT3ZOU134Yv+BlRa8BMJrxLTY0PBR8vHjApU+SK/h4+dtlJSanCE5ibUEAeALCl6vpGOmbZaVFM1FjJPFGVUrOTg4GhsGBlhSoh5qJCQ/NN2ho3N27do5lwhtGFV+9tPVrz627NyluWE1Fxf85rNPwYP2RcFRCU5Ss6Zk79utiA6biPciH+9UWiT/Ak7WK9KiKzefu+h9y8blmM5EYZa86OAnh8rflM3b56CnqSRAKEXtR9y5f6C2Y3CRqbba3s8PPBOTS7cZGboEv3ju/58gY0DkjDNnbK+/4uMFfG5cZPncxq3jxifWbzc0NAvKzqS84/4Nn/xqUcTNFX4+8VjQ0/QDH1oGuQUZBLFOQl/jrN2Ln65ZM9tmJgeh8s2b5imBt1Nd45OebOwf7MaExASxRSuW3D6ku0wPnhjZzzhcfDpBQSzHaO+GPVgHxup0xC1ffM7cgI6+oeG0hNRVzzOzZojOlMOcj9tvGKpu4CytKFo2R335HSUJ9sQ/Pwa72Id7iojItS5dLBMkLE0oJAIPmrGJseMGHc3suYoLk2Lvv1SLiUm4ddbZTEpYmPDqSVD2npySl+sUN6iELp/NPZJDHBt7b1NebfeqLWvULstNoi8ZbSMCHpUtDeyCMzNDf6rjIuEB4P0WbmjA+HR1LKIOWVs4zpolFCsggH2aNIlAUgh73DpucnLLNu2D2sF5OZRH5a96498o0PisUWGntnmhjuNxl4XzpRKeRdbtdT5/Snvt0d0ha/fPsZ+HYW/D/ZPNLnjfO+1145yqqAD28lpgWlhaVqG48QHtA7OE6Mqcz3jcnbRQOt9Qa5U2OC6zrdHpHMnlS8MWLp4T87bwk4L39SsnTvvZLJrMiVV5uz09Xlqcu8nlkulcNjbCF+oFryE+fvTwrVc6+83UlZVZ/xIjRvnEvpGVB5Lik9393Q1GwoKvYgqXZBS/2TIsIdm1S13WDhH6vX37dnLEs1oVHm5O0R3KMvbwO/Siit2JKdewMTt+JyMj+Kc6rqNryMUzp4JMiYMcWA9kPFPTgOYHXR+mtnZGUWio9VRS0zduHTc29L2mxeFDIc+zKI/Kf8MvyRZFSepJwZmbnuQUXVq7e8POBVN5HlWmDSkHhIR7McyTS1i8Sv6UAiPW/ijuienV8Oe2Ll5HJOR5sdqYuIoTT/JrVefMnhc3lYf5bkCA9zVBJalC/Z0rDmLtGPMJC/dnkquWRkvKT4trKG9XvHnrmsfFAAtJOPP5kByce/Rt1ZulJ89sXQwO9YcMChGoga94RxkWt34w375/z7KFk+my/9x59HRw+07t3sjEJM/Lt3R4EMd1aXzu4uzsio1UU6Z179CUcUT0ueWg4p6Q0bzxfXPr+lOGyii5vh3VFRX1aqu5uUvYo0c3fips1vZ4nNez1PLdhywsLQwMDvvo6+/3qKl5NbWpqXBiZOTRKSQdNzExRaXy7StxI11db7xZ9bjsYScpKfRaTWUzLp0MutbH2+foJDHxV6qqK0nSnIChOY4etjtlYKJvhyfVUfUyT/HKdX89V9dzCEEyYuA/fxJiC3dcuZxsXVJWNDUjF99x7927t+J17TtmgwN7vziU+Lw+T88rmnLik94uVVN7jjd++8OWp51c3Y7gAUIQk723p/f+s+fO4rJWoLpragrFr3gBAOP0WZLyGqhMRGLEvI8NraI6+/fjvuMgoAswjVSvX7/+i0fL0f6jd1AAYNjv2LHDDxj4ST5qjZZ1sLU+rq2331dERBpxU3MHXU/bWVpTbbVLb6emtCAhvex+o5btMbfTM3arP92zffYx1lZs6MHDe/oJWXWH7M/uF0CnzJ6+8VeS0uvVt6zddFtlKk+w100fX/4pMjkGexfrYdUYt56eXVU1bXed6nr1eHGOaRVhYf5ezh66YqL8WIu7R4ZNfV3DkjNnNi5Fh0lXrlzSmyws2S7IpPjm7MUrd1WMdlzSVJa49Dn7hpOTk8KW9VuGZafJvgwOfKuZkPLQ3/bSvomyzISGtLDMzRER92yaaWmondwPLxfjJLQiQEZsbs2Gj63dO8+ZqiyHutpiI58uvXI13DUjs3nO2g1bohjZ2tvosV6QwMGGQAiLMASnxjSMVNTEoWEaItUwDWEYOImxYSr0HZEwDNgmKgIVFRVxGP774vEevhv9N4Hwv3z34WEQ2KGCK9F1v51ZweEV7WB/D/VAcVHNqqbGXraZs+cXxsXFTA2+fU07OzdrYXFpqnL43UPCn9dfWZkv5et71RmQU/fWV1fXTQYvv4DruL4erkIT+V5uXqt5g9wt28PrpquQ4MSyzRtUSKJ+WohE9hPWDpf3HdjrriA9+S93UFR3SUnVnBs3fI2PurkYcoGBSbUXEvF09zXPB0dfviyXys0LwT2cCk+IXVfz+p2YpYmuB16/L168ekBaWgxQYcqPSJVBhy0OdkeubtPafllOTpEk6qfk1Su5G9dvmZxzPalLzj5v3hRMueodYHjq7FkTvHLRcdHLmhqbxA5qH8S1NTiuJUBQK0GHJgqnz/RAb+MENDHXAPGGK3eCrj1ibeG6VUPLC5BsbxFpfPbDwjVxKU88th7YvH/pbMGHqSE1WmZH7K9tsTW/o7px+tEZNFhfXHyq4bWoZ0dOXD0igrSTzly8G3k3Nn/jEUsb8yUKjClW1naBskuWZFvorjTqKMKEd+7TLWvjJNRu3LItQl54buFVH+/rp/zMJ4lzYi1eHrmW1ZWVy864q6si2p/LXu4uAqxCNZwMsxp9b/pHHTp3aOpMGfqiz8d5yMzKy9jQ6PIkyUml6Un1G9wuXvU9et5WbYYMbUG4b77lbX8/e64pE57eumaL6Hbac3LKp6YUNK4ZpqZTst49bw/8rjsxLkXlgkfwyfT0DzPWbtj6gIm1s50aZOXA2YbBu2gGhgep6eghvgMxKSAopsKItFRDxGFwRSIB5O2oIMiDwT+RG2NEKvgBvoxcGv0f9RU59jBUNfp3VGDk7787M3HE4ekGqIeYO0tK65c2vOuknzNr/uv4pCgJ/9vX9+Rm5y4sKk1VC48w/8JxS0uzla7euHL8mx+V0Qt0U1OjIAjOERkZaYg9PaCtR0sDR+BwTM4IPwdBFgwbxNhoaIgDA90jMa2urgEi+tndPQASnUxQthtjZmYiDAwMYP3oO/gdTT8tcXCwm8DMgRG64XtsgBZDvx8pA+E0Djrakd//Vl8bcQAGz0QrgD18WKF66bL7iZTCqxNF4U5LzmEo332bBdAJbMtbTEZb2yx1+eaNVxfNW5pe+axi4Xkfz8ObrQ7eUFsu7yQDByaPozL2u3iEXzCzPrJvAh9D7b2H9w5Vve2UM9q/a72ICPbRxebUUxp+8VLlRat9GNu7J9jbH7mqbqTpNn+JalBjxXsFgGx67rfS3LlomUR6qEfG3tdvqreYn9TcyPc76R/0g+5e5Nvt124H3/K4eVhMgJNQ/eWu0yIiLs7ZgB6DC+81LDl1/lzo4q1qV/kFxUueJ+duGBru4XFz37EeOSi67kXCi1X3Kj6ukJ4mX6mxfNIfmPyoqPxN5hYeES+eX+eH0NR3Ew5+m3XxS9nZ3ruS/qxky2ErM1NDI+tAAz2945WVrxXr6wpkohOspUld+c2O6+gYffnMKV9DWiTxBTcPGmqQzOzrhbvNEDZENYjR0dDD1j+EDfYPjajq9fcOgCwnHQjqws0KMNNEEGgcIg7CrQtUwuD74UEixLBQIBueG0CRD72Q9w30Y8xMbBAbQ2cHEOWCIPVg/wA4LXSTagDq7x+pox/UxRhoJDAODjosL+/cTz1Y+KeT9l+7HpyGPiUky/jYxStHM/NecojyiGJicuJVi3csf7J17RK7KTyE+p53xEn+ISmurm5XtjW3t2HKqiswQ2PtbcpLuEdij5E37ttdCrp3qKiokl1uwiSMbwJr75p9y4+tWLMk+GVe9QxLE9tIjI0dg0deDe6hvqH84hLlmWtWRM6SpR0BHXR0ECdEJmTvTE58eD7g5mEecMA/9JkQo6b2Hp36A2YGu9evWuUP/WVMiy/Yrmlgeb0NVONWLlg5pH1wx/a1akJho7a9d+fe9uyqzgW6hzfZcn/2+hWbkLvVxOhEWHHR3Z8Km3Vyiblw1uWaGTbMivX1IlAHNUZLQ8BWr55ZHnLXVOYfOe6J46lX01NLNa3tdTczwgMEbK4jCn0YxJuHhsA/4e/gexhEsAFpggEKBGLKA78p9zEy/qaRi36if6PvAWDyvw/8G+LXBEZWKAdqriM/fz+mgEuwHvieiRYjIDW/Ifg/1TDDcPrTjyoe7i62BcXncDlx76dkryks+7RUYYp0wcoVQuj9nCY+Km13/fvmqbq6m42+5jTone/+/YLVtXW1y/g5aPJzcgqU09NfruvtAZlRAj02RE+HiSrJl6htXnJm2yLx25/XR6wiMrypfr/Q4rTr/ZahAWz2vDn3N21Z47xwGtdTtLOFBSSYs3Nwv1VZNxc3o+Zr/ftR36OQy5vGtsmfOulZsUGaAW4+mg9MotgnPsL/dqXOKiL/q8Ze6T4CDYGZn6ZRfhKG1PNGGC6Jn4gcFU39Il1dVOxsRJoumOpudnGsAcVo0Y2hoviDQh81D81UGSy/tmLH+QAAHxJJREFUqxrjSM/PXpNZ/U5Hz2z9ygm/6/lWQR1Uw9jESdyEv6jXVb2sUhSVFK0YPcxCp8v5+R2KbcO9VJO4JjSLimJIFW+kL+DorM/u5e9s7KaR09VZ9sWcJ90v0jDSs72TkRnzU3mV38GNsKamV+zDhz4+XW3rkMM2Vq7TFCViJk3CPomJEUiqBH7zjutyMu1KXm7ZqrC7OuI/asH8nXpjYro1zE1MgXbEFxdnGhKSpv3kRd3mhfPmZWhpiJxChx/5+e+n9/YSJ8ydy0dSp3S0DwhK9zK3YX5wwj2DlStX3+Xn7K2pqnk3pfFtm2x3Fy11eyvVhNC4xH3is6eV6BttP7hEhvBFNkvzi64ZXldu3ezhYeuG5Vvb29HLzcRG3eh8dAsCAfQ/iM3a2v6hVWyijHz23LkCJN+v/449xnPZ8vLaqVHxOdqyU6TKFy2QCeKEA6V/azyRQQ929g8ycsnMUkyfKsP8hQxqIhCiG5nYhWZmRf9Uxx0dK8jaCs+Zpf3W5eSpbRrbef8d5JStbbpXcVHJypjYg5L/llH/ST1RUY2a1lbWIS8y/P5wXHA2hupqTDQ9PWMFHR1xuKysbk7dB2rhlSuWpqhv4DyN0qWqXhIVGz82CygoTAA50vJZ3c3tXG09A6wYLSs1pyBn9coFItEju0YlUSQ5I3/zy08fVXYarNj2+UEZcurMNGxzYHi8vvR86ef6GpMd4RLax0mP1RVmKbwAou53jwNfql25ERBidebQWk5+tldxgY+OVNZXKe6z2q85HYACxDYiV3xkyv66vkFePV0V639ii/F+LQrrpKRWzWz72CyrrCwT/jUS978z3of38tSZGDma5y0Se/zn65ITXm09qGcXBgec/xXHFVJS2FXrdfW85po1vLgE9GgcZHdcFFZ4mYfJAaSSztsr07aorGzWGbc9G+AECVNSokWPKiRZ2f+OYb+3bHx8nYa+vtGd/PzIPxy3KvuDdFBcqs2jtOzdA70fMQY27lZalskvd+7aEq65lv0ctEV/2SPJ4U1Vw7LNW9af9vfzOdnS1Mrw4UMvRkXDISY0mRfzu2k08k71PKx2c0HFq9WzNs0KmiHH+oUqIXoUtHMLuyEiKf9qyQqZQGlhQPTA4Z2VnXG1uqa6trTS4mepafUrrvsHel+8Yi0+iR1reBiaf+BJZp7qkoOa11dIMcVBX4ZSo9N2ZdU0K27atenieEsr+955+y9dFx5ZtsXC+Eq4t8/FdUJC2DsknI5E0xnhD/pJZIJXQfh0d2MQysGoCJBngAFAgu53AXZ0UIpe/Zh//4nKIsZ4VA/6Hfr7yPe//wPVB8iyP75H5brhDxwTUcGrJdW7Rozv4H7T2EuXnTRV13N8v+N2dxOFZirur62s7IH3WFaMmZENTo9bMCJ1MxYWeXnLWjXRiJ81EdFxreqmxvqhpSVBwkxMhDp0SJESk7P3yLEbXuc8PBfKSWKt7r7R555k1k7dt1vdda8mvwfakT0vJdq/qW5V0dDY5KWvp3P9yGGbo+s3yganPexd5uxke8X7pvV0WVn+VzdOPLMtr6pabXBuxyoUCxwdJ3o/rc6vn2Z15maelra2xqbl/HfB0YfR79GuC38G375tE414WrU9Nf3FiQteehNFCYSGsqSyLQ9zizazT5Wv3LlGBu3+Xe/z66fHF7xdSMfBQdRaL30FPRH8LHv+f2w36l7tps2rrSPo6dggC+gdxspMxFpbPo1k6aBkgb7+bnC8IYyJhRnraO/FGOCQBkVmuzu74DCWZuRQFSUSIPlZlN0DIWD4Ht7o4TC2v28Qo2egRSGjke/R7/sHejEmRhZIY+gf+fcQHALRw6EuEQ6JhuGQFoJN/9felcBTtX3/c92bsRKVjCEaKRSN6lEaNKIyJeWFEsXT6OmVHiqVXhNp7tUzNyhEhgwpM1GmBipkaECGXNx7/2tdw//V757b8H7e7/n97unT57rnrL332mvvtfe5e631XcTHVjpx7cblFUsN5biiaVDOnTu3saSkaNyhQ97/cliDOWMnaZi/evGqnRCiShOtDD5ChH8A7E7NhMxwKkN8iGALjY8iDKsT2pRhdcLm+Vh8fGij6vzOBKsYGJ7xPgPuMuEuUIPZGu7jZAFzNHqlgfWrg8JgQhQFRRBWOziW6LrgVJkqIEBldTAbmf0E+jHhFJva1EKl0pvEJBrelxNFxafYrm71NTVKYYGpli+q+dfucdCfSMgQda67r18Ji8sz37LDzmGdgZQPmhnOnk51LSgq1zc1WO7r6e3x26s3z5o2WNkGaSlpRV664HfRzH6x48iRygWxQQ/X5ZU80TLZY7xh7Tqja48jbqgjS3W5VQoxiVmuSRV1xmbWq2fPHEvJTklJNfI5sudQwNkLP1AGy1ZUVX1UuJX62vR2XMx+/4Mb2PzlR+WuPBsQ5BVfWiwQExs2RRYWm7LcMvX4whq9yrcfVHdvnrsBD1TARjsc0C+4BnX//POW40pKaiXr1llyTHlRV1c3aOXKlVcAkWM/pHohRZIAefQHJ44AJyenAwDdw5Eu9V6mjtte993RsTdXAH/vOSn46UunN78oKRu5f/+BTWQLwI4drrtGKckXrbO1/UvwLhBhM8TE8scgj19c9gEiCcf8zBD8MHPfwV0uwZGXzcUoYhx/L5/5Pdz5sNfZrR8aRaWO+ZwwUZTkr2hpq6eKiPRnCtLaYWdsZxJwMnr6pO/OouJCRS9vHzth3CFhBxWH09PW1rqut1UasW3HVj9FpZHPN1j/6MUSpLEorR0U9kksnLAyqYLM929fS66ytDq3x9Xl6JTpM2KpAvxoMiZYgu0s/BSGuR+bmDTfy3u/Q1BQoK2ururt7sO1z+WZnVw8Yc++vZcpBQUFUwBTRwagQv5l90TF1Z6+7tW0KUYppS/eSjY1MJWXLDQMPObjZWa2Wvf2hAnK2WBvhSUGNLrrQns0/smiUFlwqs1kdoALCpqjaeA2wmJ84mXCVly0bQOXsFHBqgevIkwIdYJ7bEM1lGwD85KYmAizrbW+o6XtI5Paj0Ll5xfnK3hUp3H92mWDlPunpODkrbocjOwJaU8tq94P0tu+S3smVNkYGJz/U3hi8eJlhnrXTeaJsxXXzzfl56LHb+abmhqeOHH62HExeaG45YuXnRlBFW85c+bkFT2rebulBss/Srn9eHV1XYOak8d8C5/AqzYu5iv3I7+1KbUzXTwPR83dtMlljr7spe5TUHafYUdHgeNp9B/hz1eEhtzwu3hmq5y4EFGdej1r3c3o6E0CY+WKbX9asx7d80pzatTCs57PrWqo096/daFZ9ynpl3a/O3duG8gOlq9S0VRJ50SLfISEhJhjIjeyxFhd/FKDgkJX6+npxkCkDUfMKUwyFR2drG9ubnCB7I0gC+ZQXXm55NwFC9jnA5wuwDabAk4j1V+C0vlS37Fvl4ODf1ygq3tn2LBhHEMM8e3L3z/EYtUq4/P4NsSpzpSUgplXAiKcYmJyjDLTyJ140vOfTqt9Uym5ZI7ODTLert9MMpIdIV89ebwC6SJ5+fKNdTNm/BCrpCTOcVF+8aJeMTExcu6aNea/A89sX2pOV1VZnULsvURjrr9xW96xZFUmrSo/8tul9cXFL6anpqbPOnLEYul8fadH+w/ZrzI2GMU1O92XBuGvPI+MbDGzt7MLyMq5xPacYlU1Dg2LvrcpLv3Nxq07LFVRmQNuZFjcSX61RGfOtBSrxTIn0BTh5/tgZ3FhrZ6lhcEJ94MHjzvusbHWVRePKE99O8X3zNkQ3R+NdyopjshOuJa9tqjokebhU2sX4ylwN69poQXLjvhcvPrz+UMq6koUjpnncOJEh5QaXPnD/4Tjoc0LVOVEK6Mv5DllP8yeZOlm4Txalr8AXzMK08qmRmW+nkMTE5XevErFmduA/RVZ8cpylkAcHE5ZWW8OLXl2m/1zqy/JiaviorfUpImrKrZt89z/tOTl+Nzcx5P3ethvNltlGnTx4h4z/fnjuPou96YgoiLeQyylQ+C9VH8FaWnKSzzpjbuZtcrraOBxe0dnJzk54WdhEeGWGY9eT7NYvfKspYEy/sYV8PVN2l5cVD3bwtjk2IHjnhdsHFavWagjH14GSuTjd/7qXKu1W9RnKSXGnctal5uTNWeb7wbzbvsllO8XH1ywPPD6rQAvXxc5XDC6+4gHee9eEMo0MaJGVJRoKkuu1d3lftB/lumys/Jy8iXpEdlGDGbzsF9PWqCvLNujJ+NO0ZLoR2XaY1TV81bOlwoi2x16U47/y3XfDstb4ey8N/R+5rV/xKnyt4zFFxVXS8Os4t1bKsFoEyHa4a2X2q+F4OOvIwKuHjBbpq/2H1PciJvVpk5OzoGP7vsrCIHiYqfRKcA/IsbB88Bvri1NdYQEBDRqTJ3xcL7+7MurjSdiSkqBo0dvOpeVlc9au3Y1JCvcF7Z2o5XZQp2x4bj7nT17ERTNbLuB3pjovMRS3dyH+XrKetph2qpDkrsOoET8/RNXx91LPvXbgd1if7Y34tvJKlOHcqefbNbN0ldDX22R2NvZxjZ2u8/WN9CJhXNmE9Y2xsZz9Ef2ePREBeauzXv1RG3dduPdf37l/pYB5NF+vwRiwI670WFvSFrW1T4HxvAlcxDfkyfE9IrnHcLBwXd3lr+sVHV1szKhgBfT+PFE/ufxk98vwm8vGRX13nTTRofAjGz/Txww0D766PkbVXCu5IdDrlZRUbH3w4YRtd28ws44rKKCPlBWVqDiyZPmUaNGiTzFHRB//74toysOURSoRDMXq4o1NCU3fcntggJIdfJjjx0XD3TyKunS6rKCn7wm46lyfnaDxgQl0VJK1yk03BuQn9+hXlfXShsq0792nDJR2v07tvEZS+JuaorZe2a9pNWaJaQwot8uGV6Jr5VAVETWSgcHr5D0rL4HxvDVnlNenvFn0x/kz74e+ZPS1wqmN+luhzearLezCXqYdwEwcYW5gn5/Dx+oiC/zXqoHJydayisoFpssmRVKdqr6PfVHBsVYN9MZAyfrTUpQkJHgijX8PfXzynxZArGxD4032LoHZ2Rd/e96Vf5z1/e6BflGRyXZrbezc+6gtDIFqXRaO6OFT0hAhKB/bGPAaS+YcfAED+IYIUKIwYAgKPhOg9NkiIxjoYETI35Y8B0jfdohYogBgVLC/YSJJnoTRBrBNo6xURQqpbW1jW+AoCilHRw9aIw2sA0Boh5A6jGpHXA6TeNrZw4kHmU3aIaHh65JTTsCQQYiHE9Evzx03ClYEOaW8uLxpOYPTSNnTFYNGzBgwJu/Wmd3+ZjIeDPxwTLVmlPH/E+7O/675Pk99UREpIMvwMGQPqm4oFUD37//OBB2LdJTtecVH0YFX77lEHkrYVN7GxqdWYQQGJfpGIYHoQVoiEbISUidQQwZMoQAlzV2hAO6n4AmQrBBewc/P41Bp7cLVgK4Dvw4JERFRZvhHrO1tYU5cIAofLYSbR10oqmpRazmzTtCVlKeEOkvABB7TGpbWyuEA0LkAR+L3tTSwqitpQu/rxGFeviJJ6UnSSM7wCtjsMDbt21g6oDQBc5XU1OTpIiISAvwyTFoH0vlFb6YOGGs/DMyGlyZXr9+LQMX150fD7DQ9AapTNi/yTld+CoOUJ8i/fv3Jw0zQygWMK00AT+kNEVlRQpjFMaU4+k1t0ldVAR0Y8a8IjsYwwO5iorn8nJyys/I6qlj1Q1qeFklpKAwjjS8EvsF5SEYlDs/IMchABLQzM00BjIco6CgUIE/aUhkSAEaCP0jlzPag8+fj15/8lioR0Z2CNcdtwxMUIpdQQuc2mtsbBwK44V9I/UkBH4GQXoerj7YqIvc5iG2jXMIxn8Uxdt7/574+HvqkLPGkGxgVq40TlRWmPh438Edzli2i677s9uGy1qyeEvKKKXR+d7HbO2BBr2Aul/F8ZNSWkpITZ3yQ9qx40e3mJlpoEtXt42t55X9xo2HZlY29t6lT+5rDh7ceUTf5ZWENNgm386dN095ef1urQw2n7RMb9KDBTcPj/3ZDzPUwq/eWkjWt6WLloZNn6GdA2ktOKYFYTWzpEaqjU/38fHeDnlvOB7GJSQk6K1eY+FX/rJiFLeT4fi0tHnmhsZ+1a9fjiSbwB77DvyclZ02Mexa2Aoyno3NzaPHjhqVt9fNjSPiBjpgTNRUy/A54WcDwfZJpAoHdJpakzKPHT1uC3Z8jjs/2F/1129Y75ubk6sBCy7Hibfbfdee4sIS1ZDA0JVkbRmZGF3QUFXN/uWXXzk6jXSXW2G8IgAcK/Jcdrh4kSmJmtqELD8/303z5ulzRDa5deuWvrPzjuNPnxaOJhuP346cObpt+77N8rJaFG6Ke/DgQfuk+0makTcjrcj6BrmwAlVVVR9DjimO+ZVwYYdFPRPikNcuWrToE1CA7jqBZy17e3sfSAc0mdtCGx4evnDTpk1XKY2NVUPr6t4OHD58PCleLuS8UZWUHPsBwrK4evQ8fVo1TlxcshEUjnTnyQBvIS11Bdy9yFZL8cclVSNUR0tl427NqRMAoD389NkMqzN+fm5ZWfgbl3N7kGQLwi8pwtx2wubmF1ItLSJNZLsyCv1x5uOpqlqq6JvdExf6OV+lpYXyI0Zwz9ODZbKePx+uqaREKke0Ab98WTSI2+7VOR6SMB6cjfnsdrKylEABMNSONIEU0mVnP1OeOFEJD8040uGOm5dXOEpdXaUHHfHzvuPuBfmOhLglGIPnYpBXCnfSHps4p7F99uyZBKB2IB26+nK8IFeTBuQ6es7tDSgl5ZHCzJnksD3vKt/JXf7jjt3JUzdcvrTj4tsCt90UkuYNh/nTwi04AsZMCpxPuAI+YN8hAV0tN8XFXTkzM3P0Vx9OcavsP/EsOhpSkKy3D87NDelz6SP+E/LitfmvErgDuMob1+8JzMzpe3OozypuQkK9iZWldVBOXihPcXla+V0SiInKM7Oz8wjgKe53ie/7CoUEvjJxdXUJSs/6g6e43yfC//lSUVE5Zg52+3mK+3fOBHR5tLffGJiVG8hT3L9T8P9FbUVFZZo5bDwQkJl9tc/NoT77qoyK67jZMTCx4LKCtFCnyyPv4kngWyQQGfnAfLODtz/YcUkPOL+lvr+Tts8q7p2oRtP1NraBDzIC2EEGf6fQeG39d0ggLq7AYr212xU4Ve57igso/PIlJSXS+lyQ/O8mx8wYLt2/Rll5OqkRHocyOjpaTUNDoxriJEkdA0JDQxfr6OgkkZlf8Eg8O/uRjomJISl0R37+u2m+vlFOcTEJxjEp5xRGkChuevrTaW/fvpNYtGgqaZxobGzmMgkJuRo1Nck0TtMRzUFBoTFWU7VmxSsqCr3gRFMJccvJMelzzMx0L3Gb0pWVQJecCnRzSOmyssqn1LytlFy0gJzniKgMo2FDxGu0tJTvk/DcPyQk1kJHZ25sdypLUrob8Ws0J2vHKn3me91NX17eMPLBg8x5EB5xicxEk5JdMrO+9p3kYv3pPQEUn7cXFn5/hayUZLWmplIKNxndikxbLiUtV62lIUPWN6Hg4HjLGbO14+UkBDnOx9palvLduwnzTEx0fyfjOSendtbFi1cdI8LvGWVmBZD6AqBDSHZ2tsySJUvyyPhOTEzUlZCQeAPmnsdkNDDv56xYsSIV+GFHhn1+oYMGmPCmAQACx+wU3fRoDoJY60UUCB7/8dmzJyoQmrqFrNEdO7Z7D1eWLrS3cTrPTehbdzrvU5Afke9g58DRUQEdKXTm6IS5e7rvnTVtVg6nupIzk2fs+fnXX+7GxBqSec+c9Lu264Bn0E8QsSQeGHxx6YABxGuAYEZcIAaCqAOeOgsBf46dvuReWPB05KmjnsYE4P6AyCj4iRhCiAOE+D9OjtsCtNS1npivNN4jIgEcwT3EARIDfKE2AAWoqGgYZmRk6O/u7n1s/nyN8O6yyDviCSE2UVJC2rLtO10db9y4vkpGRrQasYTY0LVoifwT3lDy3WyDnS47Nodev2YuLS1ahThGSId1Yhnk+9ChU3tfv64a6eHxqznew3bwc9AggmhoAHhagLF2dXUNHC4jX2bnYLsLsYqQBrxJ2f+hDqKmhi5tZLj8iof73hNTp0+6CX2loFzwObqeUkBW0CbiV0uZmpj6Ozo5Hjc21AlDDKXmepCfKOAqAc2bNwQrN/eh4c8uu+yv37i2eriUQPVbyC0BYYvsevBqaiKYJ33P7XtVWank6bnHpD/wA16sWD/gI3TyD05xjF92/RosJSX93Okna1c+gPhiCXVC9+JzAIqggMMd4CkTjC3OuwPHq6iUWqwxgYRdBAUd8JAGPGLZ15sKuuTSlUuvHNh30Ed7lhrbAQOfIb/YJ6wzJSXDyNV1twOMh4WkpDBk90TsbjZSDJvu4weCcuFyqIePr88CRXlFIiHpImnuIHCaMCssLlb9zdvblWzub9269QR4RRWBA4UvGQ0gjFzx8vJyg4wRHP0lwIlHE3Cmd969excBFXAoOF5Ap33gwIGDffZVOeh6oan1GsdAPgByBr9owAjiJ+h0OiQfBpdM0CYaZApva0PwZ0DYgNHEZMUweERTaxMAqQ8k6ureg0ulEMGkM4gm0OBhQ6VgEn5gA7OjCyfObnTD5O8H+EEd7TADBQka4Ci301vYbbW3A5g0AncAWg8FQOKRVkBYBDJWYBZyGrtNBO/BuhhQHr8LCPQjPgBeEZYHOGI2v4hvhHx2ZzPHzObIvxBAn2C/kH8q0DIAGB7vob83ZjwHN0323xToJ+SlYfOC2dDR9bT7s/sefmL7WC/yg8/xb6TF/+Cux36O9SEf+KxTpoC7BDzid3Z2dgDERn7xWZc7a88z5Bv5QzrkDz+RDtvGNvEefnbzjXUh4D17rIAf/I70yAfKEpA7esp0Ll4gA3iOrrRYF/LGRNmDkLEMttf6sa1Lnl0Z5QEhBumxD9juxxY6tMNgu882QfZ6xIaSkRIn8h6HsOGFyJTln3Yf3wL7rOIC8yLp6ZWTaTT2wFD6MSA8gQoj2HVREAoesKwIUDhWG4tJE6SBYjZBBgRARReiUejgt0VD71nUbcgG3jM4APBOYXSWZRDwCQQwYbp2PhqF0cKgCArCfZjALY11gKND7SlLg3KIOTJQQJg9WTonHNRDQ82D75gFAnQRSrCa2luZ6NPNVl74x6DB2gCLCFW4s77W1g6A/oEOsWiQ5bwDdpNuHhjwtjCQguVA6QCWHWKlsX68oA0qvzCL/qEF2MPGOi/AGIBVo+tLFyhKB7ULYoj1/+0gBZUKOEjdF2afIPqBzgAeWDOdEBYRABaxHwIQ/IH8wHf4h1ULgjwagCcKrkh4T2AgfOBTbL+DJUwVhno7v6OcOqgdGIgC/MPChViH8MkPfOL9/+ebxqISwA90BZZNeEPqIKidCd97rubWZlRykA+dzSMVeOyRBR+gv2H70Ccq0cFitVEh0pPKhGahPSosJB1M0cG0j6NHS2V8Wus//1ufVdx/vmh5HPIk0HsS4Clu78mWVzNPAr0mAZ7i9ppoeRXzJNB7EuApbu/JllczTwK9JgGe4vaaaHkV8yTQexLgKW7vyZZXM08CvSYBCgb4gs2BpaKiQmrHSktLGwf2u9fgFcUVegPpwHZQM2XKFNKA84iIiPmAAnCXzMhcX18vFh8fr7N8+XJS5HjwZJkApoShkF4jnptknj59Oq66ukJi5kzdRDI6MGgvUFSUqFFQUOEI2IY2s7CwMGt1dfUYMLK/4FQPov3HxsbqmZqaXuTGD5ijhsXERMw3MjL9JJfun8tAZonJDQ21EtOn62JiMI5XSkoKOJ0MqIVgcjJvL4GoqMhVU6eOjRMXJw/ax8qhb1ba2toxADnUgxH950ahb7JpaffmLly47DIZakdBQebk+vrGoTNmzI4k4/nBgwfzxcUFqsaMmZTPTUZIB+ad6tGjR3P0VGJ7sgUFWf3www9x0tLSHF1dMfl1SkrCHEND4ytkbYGnkjoEwA/FbA/c+IGg/VFgV5aYOnUqqccXjIcmeAJWAc8cZfi12hsZGTkLdCOZGz30nx/QagwoPj4+6/Ly8saeOXNmK1kBW1tbL4QTgZw2XDMXAKTGwbFjxxZs3Ljxd051QaMCCxYsCAPPH9dZszh7ToHnyAzIeeMGimBA5q4GvDrn5OSM8fPzs+XWSfB6ccK+nTx5cj0ZHfTpAnizFNnY2BziRIPKBotIPMCSbIcJfpsTTVJS0jxPT89fwRVNf9CgQXVkbUHf5oD3jDu4hs4jQ1Q4duyYC0yoscePH7ckq8fBwcEf3etAzuy0KJ9fiKNlYGBw28XFZSd47JDmAYbxGDp37lykcyWjA57ne3h4eAO0ih44anBc3H19fV1gwVGBuWRBxrOjo+MFQLYo2Lx5M2ZNJL3g+XlAgSgko8PxMDIyinNzc9s2ffr0aE4V3bt3Tw+8kNxjYmIWgZw55juCnFlbMzIyRsNcsuHGD/TNHpR3DNCR5kUC/TgMm0ihtbX1ha9V0s/pACJI9fDhw3th3i/nVgdsNOru7u4+/9ZXZYQ54eau9b2d4pX7VAK468AdTLnEEdoHqdG9lNvzb5Hp19T1NTTf0iaPlrsE/q2KyxM2TwI8Cfw9Evg/Sv1cXSs8wXEAAAAASUVORK5CYII=;" parent="1" vertex="1">
          <mxGeometry x="490" y="120" width="238" height="235" as="geometry" />
        </mxCell>
        <mxCell id="hMr4JNMgRniru60Oef6T-9" value="" style="endArrow=classic;html=1;rounded=0;entryX=0.121;entryY=0.006;entryDx=0;entryDy=0;entryPerimeter=0;strokeWidth=3;" parent="1" edge="1">
          <mxGeometry width="50" height="50" relative="1" as="geometry">
            <mxPoint x="400" y="80" as="sourcePoint" />
            <mxPoint x="399.78" y="102.70000000000005" as="targetPoint" />
            <Array as="points" />
          </mxGeometry>
        </mxCell>
        <mxCell id="hMr4JNMgRniru60Oef6T-11" value="" style="endArrow=classic;html=1;rounded=0;entryX=0.007;entryY=0.412;entryDx=0;entryDy=0;entryPerimeter=0;" parent="1" target="hMr4JNMgRniru60Oef6T-7" edge="1">
          <mxGeometry width="50" height="50" relative="1" as="geometry">
            <mxPoint x="400" y="102" as="sourcePoint" />
            <mxPoint x="440" y="300" as="targetPoint" />
            <Array as="points">
              <mxPoint x="400" y="217" />
            </Array>
          </mxGeometry>
        </mxCell>
        <mxCell id="hMr4JNMgRniru60Oef6T-12" value="" style="endArrow=classic;html=1;rounded=0;entryX=0.121;entryY=0.006;entryDx=0;entryDy=0;entryPerimeter=0;strokeWidth=3;" parent="1" edge="1">
          <mxGeometry width="50" height="50" relative="1" as="geometry">
            <mxPoint x="360" y="80" as="sourcePoint" />
            <mxPoint x="359.78" y="100.00000000000004" as="targetPoint" />
          </mxGeometry>
        </mxCell>
        <mxCell id="hMr4JNMgRniru60Oef6T-15" value="" style="endArrow=classic;html=1;rounded=0;entryX=0.121;entryY=0.006;entryDx=0;entryDy=0;entryPerimeter=0;strokeWidth=3;" parent="1" edge="1">
          <mxGeometry width="50" height="50" relative="1" as="geometry">
            <mxPoint x="440" y="80" as="sourcePoint" />
            <mxPoint x="440" y="100.70000000000005" as="targetPoint" />
          </mxGeometry>
        </mxCell>
        <mxCell id="hMr4JNMgRniru60Oef6T-19" value="" style="endArrow=classic;html=1;rounded=0;entryX=0;entryY=0.25;entryDx=0;entryDy=0;exitX=0.47;exitY=0.005;exitDx=0;exitDy=0;exitPerimeter=0;" parent="1" target="hMr4JNMgRniru60Oef6T-7" edge="1">
          <mxGeometry width="50" height="50" relative="1" as="geometry">
            <mxPoint x="440" y="102.5" as="sourcePoint" />
            <mxPoint x="532" y="217.5" as="targetPoint" />
            <Array as="points">
              <mxPoint x="440" y="179" />
            </Array>
          </mxGeometry>
        </mxCell>
        <mxCell id="hMr4JNMgRniru60Oef6T-20" value="&lt;font style=&quot;font-size: 16px;&quot;&gt;Vue structurelle MasterJoyStick&lt;/font&gt;" style="swimlane;whiteSpace=wrap;html=1;startSize=30;" parent="1" vertex="1">
          <mxGeometry x="9" y="10" width="810" height="550" as="geometry" />
        </mxCell>
        <mxCell id="hMr4JNMgRniru60Oef6T-8" value="&lt;b&gt;&lt;font style=&quot;font-size: 14px;&quot;&gt;rst&lt;/font&gt;&lt;/b&gt;" style="text;html=1;align=center;verticalAlign=middle;resizable=0;points=[];autosize=1;strokeColor=none;fillColor=none;" parent="hMr4JNMgRniru60Oef6T-20" vertex="1">
          <mxGeometry x="411" y="40" width="40" height="30" as="geometry" />
        </mxCell>
        <mxCell id="hMr4JNMgRniru60Oef6T-17" value="&lt;b&gt;&lt;font style=&quot;font-size: 14px;&quot;&gt;clk&lt;/font&gt;&lt;/b&gt;" style="text;html=1;align=center;verticalAlign=middle;resizable=0;points=[];autosize=1;strokeColor=none;fillColor=none;" parent="hMr4JNMgRniru60Oef6T-20" vertex="1">
          <mxGeometry x="371" y="40" width="40" height="30" as="geometry" />
        </mxCell>
        <mxCell id="hMr4JNMgRniru60Oef6T-18" value="&lt;b&gt;&lt;font style=&quot;font-size: 14px;&quot;&gt;en&lt;/font&gt;&lt;/b&gt;" style="text;html=1;align=center;verticalAlign=middle;resizable=0;points=[];autosize=1;strokeColor=none;fillColor=none;" parent="hMr4JNMgRniru60Oef6T-20" vertex="1">
          <mxGeometry x="331" y="40" width="40" height="30" as="geometry" />
        </mxCell>
        <mxCell id="hMr4JNMgRniru60Oef6T-25" value="" style="endArrow=classic;html=1;rounded=0;entryX=0.976;entryY=0.642;entryDx=0;entryDy=0;entryPerimeter=0;" parent="hMr4JNMgRniru60Oef6T-20" target="hMr4JNMgRniru60Oef6T-5" edge="1">
          <mxGeometry width="50" height="50" relative="1" as="geometry">
            <mxPoint x="391" y="90" as="sourcePoint" />
            <mxPoint x="281" y="141" as="targetPoint" />
          </mxGeometry>
        </mxCell>
        <mxCell id="hMr4JNMgRniru60Oef6T-30" value="&lt;b style=&quot;&quot;&gt;en_er&lt;/b&gt;" style="text;html=1;align=center;verticalAlign=middle;whiteSpace=wrap;rounded=0;" parent="hMr4JNMgRniru60Oef6T-20" vertex="1">
          <mxGeometry x="375" y="220" width="60" height="20" as="geometry" />
        </mxCell>
        <mxCell id="hMr4JNMgRniru60Oef6T-42" value="" style="endArrow=classic;html=1;rounded=0;strokeWidth=3;" parent="hMr4JNMgRniru60Oef6T-20" edge="1">
          <mxGeometry width="50" height="50" relative="1" as="geometry">
            <mxPoint x="311" y="70" as="sourcePoint" />
            <mxPoint x="311" y="91" as="targetPoint" />
          </mxGeometry>
        </mxCell>
        <mxCell id="hMr4JNMgRniru60Oef6T-47" value="" style="shape=flexArrow;endArrow=classic;html=1;rounded=0;exitX=0.295;exitY=0.043;exitDx=0;exitDy=0;exitPerimeter=0;" parent="hMr4JNMgRniru60Oef6T-20" source="hMr4JNMgRniru60Oef6T-5" edge="1">
          <mxGeometry width="50" height="50" relative="1" as="geometry">
            <mxPoint x="91" y="390" as="sourcePoint" />
            <mxPoint x="31" y="390" as="targetPoint" />
          </mxGeometry>
        </mxCell>
        <mxCell id="hMr4JNMgRniru60Oef6T-50" value="&lt;b&gt;&lt;font style=&quot;font-size: 12px;&quot;&gt;Y&lt;/font&gt;&lt;/b&gt;" style="edgeLabel;html=1;align=center;verticalAlign=middle;resizable=0;points=[];" parent="hMr4JNMgRniru60Oef6T-47" vertex="1" connectable="0">
          <mxGeometry x="0.0002" y="1" relative="1" as="geometry">
            <mxPoint as="offset" />
          </mxGeometry>
        </mxCell>
        <mxCell id="hMr4JNMgRniru60Oef6T-48" value="" style="shape=flexArrow;endArrow=classic;html=1;rounded=0;exitX=0.403;exitY=0.02;exitDx=0;exitDy=0;exitPerimeter=0;" parent="hMr4JNMgRniru60Oef6T-20" source="hMr4JNMgRniru60Oef6T-5" edge="1">
          <mxGeometry width="50" height="50" relative="1" as="geometry">
            <mxPoint x="91" y="350" as="sourcePoint" />
            <mxPoint x="31" y="350" as="targetPoint" />
          </mxGeometry>
        </mxCell>
        <mxCell id="hMr4JNMgRniru60Oef6T-49" value="&lt;font style=&quot;font-size: 12px;&quot;&gt;&lt;b&gt;X&lt;/b&gt;&lt;/font&gt;" style="edgeLabel;html=1;align=center;verticalAlign=middle;resizable=0;points=[];" parent="hMr4JNMgRniru60Oef6T-48" vertex="1" connectable="0">
          <mxGeometry x="-0.008" y="1" relative="1" as="geometry">
            <mxPoint as="offset" />
          </mxGeometry>
        </mxCell>
        <mxCell id="hMr4JNMgRniru60Oef6T-63" value="" style="endArrow=classic;html=1;rounded=0;" parent="hMr4JNMgRniru60Oef6T-20" edge="1">
          <mxGeometry width="50" height="50" relative="1" as="geometry">
            <mxPoint x="711" y="170" as="sourcePoint" />
            <mxPoint x="791" y="170" as="targetPoint" />
          </mxGeometry>
        </mxCell>
        <mxCell id="hMr4JNMgRniru60Oef6T-64" value="" style="endArrow=classic;html=1;rounded=0;" parent="hMr4JNMgRniru60Oef6T-20" edge="1">
          <mxGeometry width="50" height="50" relative="1" as="geometry">
            <mxPoint x="711" y="220" as="sourcePoint" />
            <mxPoint x="791" y="220" as="targetPoint" />
          </mxGeometry>
        </mxCell>
        <mxCell id="hMr4JNMgRniru60Oef6T-65" value="" style="endArrow=classic;html=1;rounded=0;entryX=0.297;entryY=0.977;entryDx=0;entryDy=0;entryPerimeter=0;" parent="hMr4JNMgRniru60Oef6T-20" target="hMr4JNMgRniru60Oef6T-5" edge="1">
          <mxGeometry width="50" height="50" relative="1" as="geometry">
            <mxPoint x="711" y="260" as="sourcePoint" />
            <mxPoint x="791" y="260" as="targetPoint" />
            <Array as="points">
              <mxPoint x="751" y="260" />
              <mxPoint x="751" y="400" />
            </Array>
          </mxGeometry>
        </mxCell>
        <mxCell id="hMr4JNMgRniru60Oef6T-68" value="&lt;font style=&quot;font-size: 12px;&quot;&gt;&lt;b&gt;busy_er&lt;/b&gt;&lt;/font&gt;" style="edgeLabel;html=1;align=center;verticalAlign=middle;resizable=0;points=[];" parent="hMr4JNMgRniru60Oef6T-65" vertex="1" connectable="0">
          <mxGeometry x="0.1812" y="-2" relative="1" as="geometry">
            <mxPoint x="-22" y="-14" as="offset" />
          </mxGeometry>
        </mxCell>
        <mxCell id="hMr4JNMgRniru60Oef6T-66" value="&lt;font size=&quot;1&quot; style=&quot;&quot;&gt;&lt;b style=&quot;font-size: 12px;&quot;&gt;sclk&lt;/b&gt;&lt;/font&gt;" style="text;html=1;align=center;verticalAlign=middle;whiteSpace=wrap;rounded=0;" parent="hMr4JNMgRniru60Oef6T-20" vertex="1">
          <mxGeometry x="711" y="140" width="60" height="30" as="geometry" />
        </mxCell>
        <mxCell id="hMr4JNMgRniru60Oef6T-67" value="&lt;font size=&quot;1&quot; style=&quot;&quot;&gt;&lt;b style=&quot;font-size: 12px;&quot;&gt;mosi&lt;/b&gt;&lt;/font&gt;" style="text;html=1;align=center;verticalAlign=middle;whiteSpace=wrap;rounded=0;" parent="hMr4JNMgRniru60Oef6T-20" vertex="1">
          <mxGeometry x="711" y="190" width="60" height="30" as="geometry" />
        </mxCell>
        <mxCell id="hMr4JNMgRniru60Oef6T-71" value="&lt;b&gt;&lt;font style=&quot;font-size: 14px;&quot;&gt;busy&lt;/font&gt;&lt;/b&gt;" style="text;html=1;align=center;verticalAlign=middle;resizable=0;points=[];autosize=1;strokeColor=none;fillColor=none;" parent="hMr4JNMgRniru60Oef6T-20" vertex="1">
          <mxGeometry x="186" y="60" width="60" height="30" as="geometry" />
        </mxCell>
        <mxCell id="P7UpnqIa3sRVgpHyDvDh-5" value="" style="endArrow=classic;html=1;rounded=0;" edge="1" parent="hMr4JNMgRniru60Oef6T-20">
          <mxGeometry width="50" height="50" relative="1" as="geometry">
            <mxPoint x="141" y="250" as="sourcePoint" />
            <mxPoint x="41" y="250" as="targetPoint" />
          </mxGeometry>
        </mxCell>
        <mxCell id="P7UpnqIa3sRVgpHyDvDh-6" value="" style="endArrow=classic;html=1;rounded=0;" edge="1" parent="hMr4JNMgRniru60Oef6T-20">
          <mxGeometry width="50" height="50" relative="1" as="geometry">
            <mxPoint x="133" y="270" as="sourcePoint" />
            <mxPoint x="41" y="270" as="targetPoint" />
          </mxGeometry>
        </mxCell>
        <mxCell id="P7UpnqIa3sRVgpHyDvDh-7" value="" style="endArrow=classic;html=1;rounded=0;" edge="1" parent="hMr4JNMgRniru60Oef6T-20">
          <mxGeometry width="50" height="50" relative="1" as="geometry">
            <mxPoint x="133" y="290" as="sourcePoint" />
            <mxPoint x="41" y="290" as="targetPoint" />
          </mxGeometry>
        </mxCell>
        <mxCell id="P7UpnqIa3sRVgpHyDvDh-11" value="&lt;b&gt;&lt;font style=&quot;font-size: 14px;&quot;&gt;btn3&lt;/font&gt;&lt;/b&gt;" style="text;html=1;align=center;verticalAlign=middle;resizable=0;points=[];autosize=1;strokeColor=none;fillColor=none;" vertex="1" parent="hMr4JNMgRniru60Oef6T-20">
          <mxGeometry x="61" y="280" width="50" height="30" as="geometry" />
        </mxCell>
        <mxCell id="P7UpnqIa3sRVgpHyDvDh-14" value="" style="endArrow=classic;html=1;rounded=0;" edge="1" parent="hMr4JNMgRniru60Oef6T-20">
          <mxGeometry width="50" height="50" relative="1" as="geometry">
            <mxPoint x="41" y="201" as="sourcePoint" />
            <mxPoint x="151" y="200" as="targetPoint" />
          </mxGeometry>
        </mxCell>
        <mxCell id="P7UpnqIa3sRVgpHyDvDh-17" value="&lt;b&gt;&lt;font style=&quot;font-size: 14px;&quot;&gt;led1&lt;/font&gt;&lt;/b&gt;" style="edgeLabel;html=1;align=center;verticalAlign=middle;resizable=0;points=[];" vertex="1" connectable="0" parent="P7UpnqIa3sRVgpHyDvDh-14">
          <mxGeometry x="-0.0946" relative="1" as="geometry">
            <mxPoint as="offset" />
          </mxGeometry>
        </mxCell>
        <mxCell id="P7UpnqIa3sRVgpHyDvDh-18" value="" style="endArrow=classic;html=1;rounded=0;" edge="1" parent="hMr4JNMgRniru60Oef6T-20">
          <mxGeometry width="50" height="50" relative="1" as="geometry">
            <mxPoint x="41" y="221" as="sourcePoint" />
            <mxPoint x="151" y="220" as="targetPoint" />
          </mxGeometry>
        </mxCell>
        <mxCell id="P7UpnqIa3sRVgpHyDvDh-19" value="&lt;b&gt;&lt;font style=&quot;font-size: 14px;&quot;&gt;led2&lt;/font&gt;&lt;/b&gt;" style="edgeLabel;html=1;align=center;verticalAlign=middle;resizable=0;points=[];" vertex="1" connectable="0" parent="P7UpnqIa3sRVgpHyDvDh-18">
          <mxGeometry x="-0.0946" relative="1" as="geometry">
            <mxPoint as="offset" />
          </mxGeometry>
        </mxCell>
        <mxCell id="hMr4JNMgRniru60Oef6T-24" value="" style="endArrow=classic;html=1;rounded=0;entryX=1;entryY=0.5;entryDx=0;entryDy=0;" parent="1" target="hMr4JNMgRniru60Oef6T-5" edge="1">
          <mxGeometry width="50" height="50" relative="1" as="geometry">
            <mxPoint x="360" y="99" as="sourcePoint" />
            <mxPoint x="440" y="300" as="targetPoint" />
          </mxGeometry>
        </mxCell>
        <mxCell id="hMr4JNMgRniru60Oef6T-26" value="" style="endArrow=classic;html=1;rounded=0;entryX=0.939;entryY=0.724;entryDx=0;entryDy=0;entryPerimeter=0;" parent="1" target="hMr4JNMgRniru60Oef6T-5" edge="1">
          <mxGeometry width="50" height="50" relative="1" as="geometry">
            <mxPoint x="440" y="100" as="sourcePoint" />
            <mxPoint x="310" y="169" as="targetPoint" />
          </mxGeometry>
        </mxCell>
        <mxCell id="hMr4JNMgRniru60Oef6T-27" value="" style="endArrow=classic;html=1;rounded=0;entryX=0.007;entryY=0.545;entryDx=0;entryDy=0;entryPerimeter=0;" parent="1" edge="1">
          <mxGeometry width="50" height="50" relative="1" as="geometry">
            <mxPoint x="347" y="250" as="sourcePoint" />
            <mxPoint x="493.27599999999995" y="250.03500000000005" as="targetPoint" />
          </mxGeometry>
        </mxCell>
        <mxCell id="hMr4JNMgRniru60Oef6T-32" value="" style="shape=flexArrow;endArrow=classic;html=1;rounded=0;entryX=0.007;entryY=0.878;entryDx=0;entryDy=0;entryPerimeter=0;exitX=0.5;exitY=1;exitDx=0;exitDy=0;" parent="1" source="hMr4JNMgRniru60Oef6T-5" target="hMr4JNMgRniru60Oef6T-7" edge="1">
          <mxGeometry width="50" height="50" relative="1" as="geometry">
            <mxPoint x="370" y="350" as="sourcePoint" />
            <mxPoint x="420" y="300" as="targetPoint" />
          </mxGeometry>
        </mxCell>
        <mxCell id="hMr4JNMgRniru60Oef6T-34" value="&lt;font size=&quot;1&quot; style=&quot;&quot;&gt;&lt;b style=&quot;font-size: 12px;&quot;&gt;din_er&lt;/b&gt;&lt;/font&gt;" style="edgeLabel;html=1;align=center;verticalAlign=middle;resizable=0;points=[];" parent="hMr4JNMgRniru60Oef6T-32" vertex="1" connectable="0">
          <mxGeometry x="-0.2016" y="4" relative="1" as="geometry">
            <mxPoint x="4" y="3" as="offset" />
          </mxGeometry>
        </mxCell>
        <mxCell id="hMr4JNMgRniru60Oef6T-33" value="" style="shape=flexArrow;endArrow=classic;html=1;rounded=0;entryX=0.41;entryY=0.992;entryDx=0;entryDy=0;entryPerimeter=0;strokeWidth=2;endSize=7;startSize=6;" parent="1" target="hMr4JNMgRniru60Oef6T-5" edge="1">
          <mxGeometry width="50" height="50" relative="1" as="geometry">
            <mxPoint x="720" y="316" as="sourcePoint" />
            <mxPoint x="420" y="300" as="targetPoint" />
            <Array as="points">
              <mxPoint x="740" y="316" />
              <mxPoint x="740" y="360" />
            </Array>
          </mxGeometry>
        </mxCell>
        <mxCell id="hMr4JNMgRniru60Oef6T-62" value="&lt;b&gt;&lt;font style=&quot;font-size: 12px;&quot;&gt;dout_er&lt;/font&gt;&lt;/b&gt;" style="edgeLabel;html=1;align=center;verticalAlign=middle;resizable=0;points=[];" parent="hMr4JNMgRniru60Oef6T-33" vertex="1" connectable="0">
          <mxGeometry x="0.2567" y="-3" relative="1" as="geometry">
            <mxPoint y="-1" as="offset" />
          </mxGeometry>
        </mxCell>
        <mxCell id="hMr4JNMgRniru60Oef6T-37" value="" style="endArrow=classic;html=1;rounded=0;entryX=0.007;entryY=0.722;entryDx=0;entryDy=0;entryPerimeter=0;" parent="1" target="hMr4JNMgRniru60Oef6T-7" edge="1">
          <mxGeometry width="50" height="50" relative="1" as="geometry">
            <mxPoint x="320" y="100" as="sourcePoint" />
            <mxPoint x="420" y="300" as="targetPoint" />
            <Array as="points">
              <mxPoint x="370" y="290" />
            </Array>
          </mxGeometry>
        </mxCell>
        <mxCell id="hMr4JNMgRniru60Oef6T-43" value="&lt;b&gt;&lt;font style=&quot;font-size: 14px;&quot;&gt;miso&lt;/font&gt;&lt;/b&gt;" style="text;html=1;align=center;verticalAlign=middle;resizable=0;points=[];autosize=1;strokeColor=none;fillColor=none;" parent="1" vertex="1">
          <mxGeometry x="290" y="48" width="60" height="30" as="geometry" />
        </mxCell>
        <mxCell id="hMr4JNMgRniru60Oef6T-55" value="" style="endArrow=classic;html=1;rounded=0;exitX=0;exitY=1;exitDx=0;exitDy=0;" parent="1" source="hMr4JNMgRniru60Oef6T-5" edge="1">
          <mxGeometry width="50" height="50" relative="1" as="geometry">
            <mxPoint x="370" y="350" as="sourcePoint" />
            <mxPoint x="800" y="460" as="targetPoint" />
          </mxGeometry>
        </mxCell>
        <mxCell id="hMr4JNMgRniru60Oef6T-56" value="&lt;font style=&quot;font-size: 14px;&quot;&gt;&lt;b&gt;ss&lt;/b&gt;&lt;/font&gt;" style="edgeLabel;html=1;align=center;verticalAlign=middle;resizable=0;points=[];" parent="hMr4JNMgRniru60Oef6T-55" vertex="1" connectable="0">
          <mxGeometry x="0.1633" y="2" relative="1" as="geometry">
            <mxPoint x="-50" y="-16" as="offset" />
          </mxGeometry>
        </mxCell>
        <mxCell id="hMr4JNMgRniru60Oef6T-70" value="" style="endArrow=classic;html=1;rounded=0;" parent="1" edge="1">
          <mxGeometry width="50" height="50" relative="1" as="geometry">
            <mxPoint x="200" y="160" as="sourcePoint" />
            <mxPoint x="200" y="70" as="targetPoint" />
          </mxGeometry>
        </mxCell>
        <mxCell id="P7UpnqIa3sRVgpHyDvDh-8" value="&lt;b&gt;&lt;font style=&quot;font-size: 14px;&quot;&gt;btn1&lt;/font&gt;&lt;/b&gt;" style="text;html=1;align=center;verticalAlign=middle;resizable=0;points=[];autosize=1;strokeColor=none;fillColor=none;" vertex="1" parent="1">
          <mxGeometry x="70" y="240" width="50" height="30" as="geometry" />
        </mxCell>
        <mxCell id="P7UpnqIa3sRVgpHyDvDh-10" value="&lt;b&gt;&lt;font style=&quot;font-size: 14px;&quot;&gt;btn2&lt;/font&gt;&lt;/b&gt;" style="text;html=1;align=center;verticalAlign=middle;resizable=0;points=[];autosize=1;strokeColor=none;fillColor=none;" vertex="1" parent="1">
          <mxGeometry x="70" y="260" width="50" height="30" as="geometry" />
        </mxCell>
      </root>
    </mxGraphModel>
  </diagram>
</mxfile>
